<?xml version="1.0" encoding="UTF-8" standalone="no"?>
<!DOCTYPE svg PUBLIC "-//W3C//DTD SVG 1.1//EN"
 "http://www.w3.org/Graphics/SVG/1.1/DTD/svg11.dtd">
<!-- Generated by graphviz version 2.38.0 (20140413.2041)
 -->
<!-- Title: Framework/include/QualityControl/CheckInterface.h Pages: 1 -->
<svg width="3058pt" height="173pt"
 viewBox="0.00 0.00 3057.50 173.00" xmlns="http://www.w3.org/2000/svg" xmlns:xlink="http://www.w3.org/1999/xlink">
<g id="graph0" class="graph" transform="scale(1 1) rotate(0) translate(4 169)">
<title>Framework/include/QualityControl/CheckInterface.h</title>
<!-- Node1 -->
<g id="node1" class="node"><title>Node1</title>
<polygon fill="#bfbfbf" stroke="black" points="2124.5,-134.5 2124.5,-164.5 2257.5,-164.5 2257.5,-134.5 2124.5,-134.5"/>
<text text-anchor="start" x="2132.5" y="-152.5" font-family="Helvetica,sans-Serif" font-size="10.00">Framework/include/Quality</text>
<text text-anchor="middle" x="2191" y="-141.5" font-family="Helvetica,sans-Serif" font-size="10.00">Control/CheckInterface.h</text>
</g>
<!-- Node2 -->
<g id="node2" class="node"><title>Node2</title>
<g id="a_node2"><a xlink:href="Checker_8h.html" target="_top" xlink:title="Framework/include/Quality\lControl/Checker.h">
<polygon fill="none" stroke="black" points="777.5,-67.5 777.5,-97.5 910.5,-97.5 910.5,-67.5 777.5,-67.5"/>
<text text-anchor="start" x="785.5" y="-85.5" font-family="Helvetica,sans-Serif" font-size="10.00">Framework/include/Quality</text>
<text text-anchor="middle" x="844" y="-74.5" font-family="Helvetica,sans-Serif" font-size="10.00">Control/Checker.h</text>
</a>
</g>
</g>
<!-- Node1&#45;&gt;Node2 -->
<g id="edge1" class="edge"><title>Node1&#45;&gt;Node2</title>
<path fill="none" stroke="midnightblue" d="M2114.14,-144.791C1873.48,-133.178 1137.02,-97.6399 910.802,-86.7236"/>
<polygon fill="midnightblue" stroke="midnightblue" points="2114.04,-148.29 2124.2,-145.277 2114.38,-141.299 2114.04,-148.29"/>
</g>
<!-- Node12 -->
<g id="node12" class="node"><title>Node12</title>
<g id="a_node12"><a xlink:href="CheckInterface_8cxx.html" target="_top" xlink:title="Framework/src/CheckInterface.cxx">
<polygon fill="none" stroke="black" points="1484,-73 1484,-92 1654,-92 1654,-73 1484,-73"/>
<text text-anchor="middle" x="1569" y="-80" font-family="Helvetica,sans-Serif" font-size="10.00">Framework/src/CheckInterface.cxx</text>
</a>
</g>
</g>
<!-- Node1&#45;&gt;Node12 -->
<g id="edge11" class="edge"><title>Node1&#45;&gt;Node12</title>
<path fill="none" stroke="midnightblue" d="M2114.19,-142.552C2011.28,-134.263 1823.06,-117.983 1663,-98 1649.24,-96.2817 1634.38,-94.1299 1620.64,-92.014"/>
<polygon fill="midnightblue" stroke="midnightblue" points="2113.94,-146.042 2124.18,-143.353 2114.5,-139.065 2113.94,-146.042"/>
</g>
<!-- Node13 -->
<g id="node13" class="node"><title>Node13</title>
<g id="a_node13"><a xlink:href="testCheckInterface_8cxx.html" target="_top" xlink:title="Framework/test/testCheck\lInterface.cxx">
<polygon fill="none" stroke="black" points="1672.5,-67.5 1672.5,-97.5 1805.5,-97.5 1805.5,-67.5 1672.5,-67.5"/>
<text text-anchor="start" x="1680.5" y="-85.5" font-family="Helvetica,sans-Serif" font-size="10.00">Framework/test/testCheck</text>
<text text-anchor="middle" x="1739" y="-74.5" font-family="Helvetica,sans-Serif" font-size="10.00">Interface.cxx</text>
</a>
</g>
</g>
<!-- Node1&#45;&gt;Node13 -->
<g id="edge12" class="edge"><title>Node1&#45;&gt;Node13</title>
<path fill="none" stroke="midnightblue" d="M2114.42,-139.559C2038.12,-130.34 1917.69,-114.954 1814,-98 1811.25,-97.5506 1808.45,-97.0774 1805.62,-96.5872"/>
<polygon fill="midnightblue" stroke="midnightblue" points="2114.08,-143.043 2124.43,-140.763 2114.92,-136.094 2114.08,-143.043"/>
</g>
<!-- Node14 -->
<g id="node14" class="node"><title>Node14</title>
<g id="a_node14"><a xlink:href="MeanIsAbove_8h.html" target="_top" xlink:title="Modules/Common/include\l/Common/MeanIsAbove.h">
<polygon fill="none" stroke="black" points="1823.5,-67.5 1823.5,-97.5 1954.5,-97.5 1954.5,-67.5 1823.5,-67.5"/>
<text text-anchor="start" x="1831.5" y="-85.5" font-family="Helvetica,sans-Serif" font-size="10.00">Modules/Common/include</text>
<text text-anchor="middle" x="1889" y="-74.5" font-family="Helvetica,sans-Serif" font-size="10.00">/Common/MeanIsAbove.h</text>
</a>
</g>
</g>
<!-- Node1&#45;&gt;Node14 -->
<g id="edge13" class="edge"><title>Node1&#45;&gt;Node14</title>
<path fill="none" stroke="midnightblue" d="M2115.8,-132.316C2066.17,-121.633 2001.78,-107.775 1954.3,-97.5549"/>
<polygon fill="midnightblue" stroke="midnightblue" points="2115.33,-135.793 2125.84,-134.476 2116.8,-128.95 2115.33,-135.793"/>
</g>
<!-- Node17 -->
<g id="node17" class="node"><title>Node17</title>
<g id="a_node17"><a xlink:href="NonEmpty_8h.html" target="_top" xlink:title="Modules/Common/include\l/Common/NonEmpty.h">
<polygon fill="none" stroke="black" points="1973,-67.5 1973,-97.5 2103,-97.5 2103,-67.5 1973,-67.5"/>
<text text-anchor="start" x="1981" y="-85.5" font-family="Helvetica,sans-Serif" font-size="10.00">Modules/Common/include</text>
<text text-anchor="middle" x="2038" y="-74.5" font-family="Helvetica,sans-Serif" font-size="10.00">/Common/NonEmpty.h</text>
</a>
</g>
</g>
<!-- Node1&#45;&gt;Node17 -->
<g id="edge16" class="edge"><title>Node1&#45;&gt;Node17</title>
<path fill="none" stroke="midnightblue" d="M2148.41,-130.407C2123.98,-120.029 2093.78,-107.195 2071.13,-97.5765"/>
<polygon fill="midnightblue" stroke="midnightblue" points="2147.23,-133.707 2157.8,-134.396 2149.97,-127.264 2147.23,-133.707"/>
</g>
<!-- Node20 -->
<g id="node20" class="node"><title>Node20</title>
<g id="a_node20"><a xlink:href="EverIncreasingGraph_8h.html" target="_top" xlink:title="Modules/Daq/include\l/Daq/EverIncreasingGraph.h">
<polygon fill="none" stroke="black" points="2121,-67.5 2121,-97.5 2261,-97.5 2261,-67.5 2121,-67.5"/>
<text text-anchor="start" x="2129" y="-85.5" font-family="Helvetica,sans-Serif" font-size="10.00">Modules/Daq/include</text>
<text text-anchor="middle" x="2191" y="-74.5" font-family="Helvetica,sans-Serif" font-size="10.00">/Daq/EverIncreasingGraph.h</text>
</a>
</g>
</g>
<!-- Node1&#45;&gt;Node20 -->
<g id="edge19" class="edge"><title>Node1&#45;&gt;Node20</title>
<path fill="none" stroke="midnightblue" d="M2191,-124.108C2191,-115.154 2191,-105.323 2191,-97.5765"/>
<polygon fill="midnightblue" stroke="midnightblue" points="2187.5,-124.396 2191,-134.396 2194.5,-124.396 2187.5,-124.396"/>
</g>
<!-- Node22 -->
<g id="node22" class="node"><title>Node22</title>
<g id="a_node22"><a xlink:href="FakeCheck_8h.html" target="_top" xlink:title="Modules/Example/include\l/Example/FakeCheck.h">
<polygon fill="none" stroke="black" points="2279,-67.5 2279,-97.5 2407,-97.5 2407,-67.5 2279,-67.5"/>
<text text-anchor="start" x="2287" y="-85.5" font-family="Helvetica,sans-Serif" font-size="10.00">Modules/Example/include</text>
<text text-anchor="middle" x="2343" y="-74.5" font-family="Helvetica,sans-Serif" font-size="10.00">/Example/FakeCheck.h</text>
</a>
</g>
</g>
<!-- Node1&#45;&gt;Node22 -->
<g id="edge21" class="edge"><title>Node1&#45;&gt;Node22</title>
<path fill="none" stroke="midnightblue" d="M2233.31,-130.407C2257.58,-120.029 2287.59,-107.195 2310.08,-97.5765"/>
<polygon fill="midnightblue" stroke="midnightblue" points="2231.8,-127.246 2223.98,-134.396 2234.55,-133.682 2231.8,-127.246"/>
</g>
<!-- Node24 -->
<g id="node24" class="node"><title>Node24</title>
<g id="a_node24"><a xlink:href="SkeletonCheck_8h.html" target="_top" xlink:title="Modules/Skeleton/include\l/Skeleton/SkeletonCheck.h">
<polygon fill="none" stroke="black" points="2425,-67.5 2425,-97.5 2561,-97.5 2561,-67.5 2425,-67.5"/>
<text text-anchor="start" x="2433" y="-85.5" font-family="Helvetica,sans-Serif" font-size="10.00">Modules/Skeleton/include</text>
<text text-anchor="middle" x="2493" y="-74.5" font-family="Helvetica,sans-Serif" font-size="10.00">/Skeleton/SkeletonCheck.h</text>
</a>
</g>
</g>
<!-- Node1&#45;&gt;Node24 -->
<g id="edge23" class="edge"><title>Node1&#45;&gt;Node24</title>
<path fill="none" stroke="midnightblue" d="M2266.2,-132.316C2315.83,-121.633 2380.22,-107.775 2427.7,-97.5549"/>
<polygon fill="midnightblue" stroke="midnightblue" points="2265.2,-128.95 2256.16,-134.476 2266.67,-135.793 2265.2,-128.95"/>
</g>
<!-- Node26 -->
<g id="node26" class="node"><title>Node26</title>
<g id="a_node26"><a xlink:href="TOFCheckRawsMulti_8h.html" target="_top" xlink:title="Modules/TOF/include\l/TOF/TOFCheckRawsMulti.h">
<polygon fill="none" stroke="black" points="2579.5,-67.5 2579.5,-97.5 2724.5,-97.5 2724.5,-67.5 2579.5,-67.5"/>
<text text-anchor="start" x="2587.5" y="-85.5" font-family="Helvetica,sans-Serif" font-size="10.00">Modules/TOF/include</text>
<text text-anchor="middle" x="2652" y="-74.5" font-family="Helvetica,sans-Serif" font-size="10.00">/TOF/TOFCheckRawsMulti.h</text>
</a>
</g>
</g>
<!-- Node1&#45;&gt;Node26 -->
<g id="edge25" class="edge"><title>Node1&#45;&gt;Node26</title>
<path fill="none" stroke="midnightblue" d="M2267.58,-139.267C2344.23,-129.797 2465.47,-114.198 2570,-98 2573,-97.5351 2576.06,-97.0489 2579.15,-96.548"/>
<polygon fill="midnightblue" stroke="midnightblue" points="2267.03,-135.808 2257.53,-140.505 2267.89,-142.756 2267.03,-135.808"/>
</g>
<!-- Node28 -->
<g id="node28" class="node"><title>Node28</title>
<g id="a_node28"><a xlink:href="TOFCheckRawsTime_8h.html" target="_top" xlink:title="Modules/TOF/include\l/TOF/TOFCheckRawsTime.h">
<polygon fill="none" stroke="black" points="2743,-67.5 2743,-97.5 2889,-97.5 2889,-67.5 2743,-67.5"/>
<text text-anchor="start" x="2751" y="-85.5" font-family="Helvetica,sans-Serif" font-size="10.00">Modules/TOF/include</text>
<text text-anchor="middle" x="2816" y="-74.5" font-family="Helvetica,sans-Serif" font-size="10.00">/TOF/TOFCheckRawsTime.h</text>
</a>
</g>
</g>
<!-- Node1&#45;&gt;Node28 -->
<g id="edge27" class="edge"><title>Node1&#45;&gt;Node28</title>
<path fill="none" stroke="midnightblue" d="M2267.73,-143.294C2372.95,-135.714 2567.79,-120.092 2733,-98 2736.19,-97.5735 2739.44,-97.1132 2742.73,-96.628"/>
<polygon fill="midnightblue" stroke="midnightblue" points="2267.25,-139.82 2257.52,-144.025 2267.75,-146.802 2267.25,-139.82"/>
</g>
<!-- Node30 -->
<g id="node30" class="node"><title>Node30</title>
<g id="a_node30"><a xlink:href="TOFCheckRawsToT_8h.html" target="_top" xlink:title="Modules/TOF/include\l/TOF/TOFCheckRawsToT.h">
<polygon fill="none" stroke="black" points="2907.5,-67.5 2907.5,-97.5 3048.5,-97.5 3048.5,-67.5 2907.5,-67.5"/>
<text text-anchor="start" x="2915.5" y="-85.5" font-family="Helvetica,sans-Serif" font-size="10.00">Modules/TOF/include</text>
<text text-anchor="middle" x="2978" y="-74.5" font-family="Helvetica,sans-Serif" font-size="10.00">/TOF/TOFCheckRawsToT.h</text>
</a>
</g>
</g>
<!-- Node1&#45;&gt;Node30 -->
<g id="edge29" class="edge"><title>Node1&#45;&gt;Node30</title>
<path fill="none" stroke="midnightblue" d="M2267.77,-145.734C2397.86,-140.44 2669.77,-126.75 2898,-98 2901.08,-97.6119 2904.22,-97.1834 2907.39,-96.7244"/>
<polygon fill="midnightblue" stroke="midnightblue" points="2267.37,-142.247 2257.52,-146.146 2267.65,-149.242 2267.37,-142.247"/>
</g>
<!-- Node3 -->
<g id="node3" class="node"><title>Node3</title>
<g id="a_node3"><a xlink:href="Checker_8cxx.html" target="_top" xlink:title="Framework/src/Checker.cxx">
<polygon fill="none" stroke="black" points="0,-6 0,-25 140,-25 140,-6 0,-6"/>
<text text-anchor="middle" x="70" y="-13" font-family="Helvetica,sans-Serif" font-size="10.00">Framework/src/Checker.cxx</text>
</a>
</g>
</g>
<!-- Node2&#45;&gt;Node3 -->
<g id="edge2" class="edge"><title>Node2&#45;&gt;Node3</title>
<path fill="none" stroke="midnightblue" d="M767.022,-78.6498C638.544,-73.279 372.454,-59.5389 149,-31 136.828,-29.4454 123.689,-27.2462 111.687,-25.0293"/>
<polygon fill="midnightblue" stroke="midnightblue" points="767.018,-82.1525 777.154,-79.0678 767.306,-75.1584 767.018,-82.1525"/>
</g>
<!-- Node4 -->
<g id="node4" class="node"><title>Node4</title>
<g id="a_node4"><a xlink:href="CheckerFactory_8cxx.html" target="_top" xlink:title="Framework/src/CheckerFactory.cxx">
<polygon fill="none" stroke="black" points="158.5,-6 158.5,-25 331.5,-25 331.5,-6 158.5,-6"/>
<text text-anchor="middle" x="245" y="-13" font-family="Helvetica,sans-Serif" font-size="10.00">Framework/src/CheckerFactory.cxx</text>
</a>
</g>
</g>
<!-- Node2&#45;&gt;Node4 -->
<g id="edge3" class="edge"><title>Node2&#45;&gt;Node4</title>
<path fill="none" stroke="midnightblue" d="M766.968,-74.968C668.156,-66.3134 491.547,-49.9148 341,-31 327.119,-29.256 312.148,-27.1186 298.252,-25.0263"/>
<polygon fill="midnightblue" stroke="midnightblue" points="766.896,-78.4749 777.162,-75.8575 767.504,-71.5014 766.896,-78.4749"/>
</g>
<!-- Node5 -->
<g id="node5" class="node"><title>Node5</title>
<g id="a_node5"><a xlink:href="runBasic_8cxx.html" target="_top" xlink:title="This is an executable showing QC Task&#39;s usage in Data Processing Layer. ">
<polygon fill="none" stroke="black" points="350,-6 350,-25 492,-25 492,-6 350,-6"/>
<text text-anchor="middle" x="421" y="-13" font-family="Helvetica,sans-Serif" font-size="10.00">Framework/src/runBasic.cxx</text>
</a>
</g>
</g>
<!-- Node2&#45;&gt;Node5 -->
<g id="edge4" class="edge"><title>Node2&#45;&gt;Node5</title>
<path fill="none" stroke="midnightblue" d="M767.179,-70.9316C697.59,-61.1817 592.285,-45.9885 501,-31 489.857,-29.1704 477.866,-27.0683 466.645,-25.0426"/>
<polygon fill="midnightblue" stroke="midnightblue" points="766.793,-74.4116 777.181,-72.3299 767.762,-67.479 766.793,-74.4116"/>
</g>
<!-- Node6 -->
<g id="node6" class="node"><title>Node6</title>
<g id="a_node6"><a xlink:href="runMergerTest_8cxx.html" target="_top" xlink:title="This is DPL workflow to see HistoMerger in action. ">
<polygon fill="none" stroke="black" points="510.5,-6 510.5,-25 677.5,-25 677.5,-6 510.5,-6"/>
<text text-anchor="middle" x="594" y="-13" font-family="Helvetica,sans-Serif" font-size="10.00">Framework/src/runMergerTest.cxx</text>
</a>
</g>
</g>
<!-- Node2&#45;&gt;Node6 -->
<g id="edge5" class="edge"><title>Node2&#45;&gt;Node6</title>
<path fill="none" stroke="midnightblue" d="M780.193,-64.9102C731.232,-52.1803 665.643,-35.1273 626.803,-25.0287"/>
<polygon fill="midnightblue" stroke="midnightblue" points="779.503,-68.347 790.062,-67.476 781.264,-61.5722 779.503,-68.347"/>
</g>
<!-- Node7 -->
<g id="node7" class="node"><title>Node7</title>
<g id="a_node7"><a xlink:href="runQC_8cxx.html" target="_top" xlink:title="This is an executable which generates a QC topology given a configuration file. ">
<polygon fill="none" stroke="black" points="696,-6 696,-25 828,-25 828,-6 696,-6"/>
<text text-anchor="middle" x="762" y="-13" font-family="Helvetica,sans-Serif" font-size="10.00">Framework/src/runQC.cxx</text>
</a>
</g>
</g>
<!-- Node2&#45;&gt;Node7 -->
<g id="edge6" class="edge"><title>Node2&#45;&gt;Node7</title>
<path fill="none" stroke="midnightblue" d="M818.149,-61.008C802.926,-48.9412 784.461,-34.3046 772.968,-25.1945"/>
<polygon fill="midnightblue" stroke="midnightblue" points="816.196,-63.9268 826.207,-67.396 820.545,-58.4412 816.196,-63.9268"/>
</g>
<!-- Node8 -->
<g id="node8" class="node"><title>Node8</title>
<g id="a_node8"><a xlink:href="testChecker_8cxx.html" target="_top" xlink:title="Framework/test/testChecker.cxx">
<polygon fill="none" stroke="black" points="846,-6 846,-25 1006,-25 1006,-6 846,-6"/>
<text text-anchor="middle" x="926" y="-13" font-family="Helvetica,sans-Serif" font-size="10.00">Framework/test/testChecker.cxx</text>
</a>
</g>
</g>
<!-- Node2&#45;&gt;Node8 -->
<g id="edge7" class="edge"><title>Node2&#45;&gt;Node8</title>
<path fill="none" stroke="midnightblue" d="M869.851,-61.008C885.074,-48.9412 903.539,-34.3046 915.032,-25.1945"/>
<polygon fill="midnightblue" stroke="midnightblue" points="867.455,-58.4412 861.793,-67.396 871.804,-63.9268 867.455,-58.4412"/>
</g>
<!-- Node9 -->
<g id="node9" class="node"><title>Node9</title>
<g id="a_node9"><a xlink:href="testWorkflow_8cxx.html" target="_top" xlink:title="Framework/test/testWorkflow.cxx">
<polygon fill="none" stroke="black" points="1024,-6 1024,-25 1188,-25 1188,-6 1024,-6"/>
<text text-anchor="middle" x="1106" y="-13" font-family="Helvetica,sans-Serif" font-size="10.00">Framework/test/testWorkflow.cxx</text>
</a>
</g>
</g>
<!-- Node2&#45;&gt;Node9 -->
<g id="edge8" class="edge"><title>Node2&#45;&gt;Node9</title>
<path fill="none" stroke="midnightblue" d="M910.548,-64.9899C961.894,-52.2516 1030.83,-35.1484 1071.62,-25.0287"/>
<polygon fill="midnightblue" stroke="midnightblue" points="909.391,-61.671 900.528,-67.476 911.076,-68.465 909.391,-61.671"/>
</g>
<!-- Node10 -->
<g id="node10" class="node"><title>Node10</title>
<polygon fill="none" stroke="#bfbfbf" points="1206,-6 1206,-25 1424,-25 1424,-6 1206,-6"/>
<text text-anchor="middle" x="1315" y="-13" font-family="Helvetica,sans-Serif" font-size="10.00">Modules/EMCAL/src/runQCEMCALDigits.cxx</text>
</g>
<!-- Node2&#45;&gt;Node10 -->
<g id="edge9" class="edge"><title>Node2&#45;&gt;Node10</title>
<path fill="none" stroke="midnightblue" d="M921.151,-70.8528C1013.92,-58.0508 1167.76,-36.82 1253.12,-25.0392"/>
<polygon fill="midnightblue" stroke="midnightblue" points="920.41,-67.4218 910.983,-72.2561 921.367,-74.3561 920.41,-67.4218"/>
</g>
<!-- Node11 -->
<g id="node11" class="node"><title>Node11</title>
<g id="a_node11"><a xlink:href="runTOF_8cxx.html" target="_top" xlink:title="This is an executable showing QC Task&#39;s usage in Data Processing Layer. ">
<polygon fill="none" stroke="black" points="1442.5,-6 1442.5,-25 1589.5,-25 1589.5,-6 1442.5,-6"/>
<text text-anchor="middle" x="1516" y="-13" font-family="Helvetica,sans-Serif" font-size="10.00">Modules/TOF/src/runTOF.cxx</text>
</a>
</g>
</g>
<!-- Node2&#45;&gt;Node11 -->
<g id="edge10" class="edge"><title>Node2&#45;&gt;Node11</title>
<path fill="none" stroke="midnightblue" d="M921.147,-77.0438C1033.9,-70.0423 1250.17,-54.762 1433,-31 1445.48,-29.3787 1458.94,-27.2103 1471.31,-25.0454"/>
<polygon fill="midnightblue" stroke="midnightblue" points="920.66,-73.567 910.894,-77.6753 921.09,-80.5538 920.66,-73.567"/>
</g>
<!-- Node15 -->
<g id="node15" class="node"><title>Node15</title>
<g id="a_node15"><a xlink:href="MeanIsAbove_8cxx.html" target="_top" xlink:title="Modules/Common/src\l/MeanIsAbove.cxx">
<polygon fill="none" stroke="black" points="1607.5,-0.5 1607.5,-30.5 1720.5,-30.5 1720.5,-0.5 1607.5,-0.5"/>
<text text-anchor="start" x="1615.5" y="-18.5" font-family="Helvetica,sans-Serif" font-size="10.00">Modules/Common/src</text>
<text text-anchor="middle" x="1664" y="-7.5" font-family="Helvetica,sans-Serif" font-size="10.00">/MeanIsAbove.cxx</text>
</a>
</g>
</g>
<!-- Node14&#45;&gt;Node15 -->
<g id="edge14" class="edge"><title>Node14&#45;&gt;Node15</title>
<path fill="none" stroke="midnightblue" d="M1830.43,-64.5797C1793.89,-54.0225 1747.4,-40.5921 1712.85,-30.6109"/>
<polygon fill="midnightblue" stroke="midnightblue" points="1829.88,-68.063 1840.46,-67.476 1831.82,-61.338 1829.88,-68.063"/>
</g>
<!-- Node16 -->
<g id="node16" class="node"><title>Node16</title>
<polygon fill="none" stroke="#bfbfbf" points="1739,-0.5 1739,-30.5 1855,-30.5 1855,-0.5 1739,-0.5"/>
<text text-anchor="start" x="1747" y="-18.5" font-family="Helvetica,sans-Serif" font-size="10.00">Modules/Common/test</text>
<text text-anchor="middle" x="1797" y="-7.5" font-family="Helvetica,sans-Serif" font-size="10.00">/testMeanIsAbove.cxx</text>
</g>
<!-- Node14&#45;&gt;Node16 -->
<g id="edge15" class="edge"><title>Node14&#45;&gt;Node16</title>
<path fill="none" stroke="midnightblue" d="M1860.62,-61.4511C1846.47,-51.4517 1829.69,-39.5995 1816.92,-30.5765"/>
<polygon fill="midnightblue" stroke="midnightblue" points="1858.85,-64.4841 1869.04,-67.396 1862.89,-58.7671 1858.85,-64.4841"/>
</g>
<!-- Node18 -->
<g id="node18" class="node"><title>Node18</title>
<g id="a_node18"><a xlink:href="NonEmpty_8cxx.html" target="_top" xlink:title="Modules/Common/src\l/NonEmpty.cxx">
<polygon fill="none" stroke="black" points="1873.5,-0.5 1873.5,-30.5 1986.5,-30.5 1986.5,-0.5 1873.5,-0.5"/>
<text text-anchor="start" x="1881.5" y="-18.5" font-family="Helvetica,sans-Serif" font-size="10.00">Modules/Common/src</text>
<text text-anchor="middle" x="1930" y="-7.5" font-family="Helvetica,sans-Serif" font-size="10.00">/NonEmpty.cxx</text>
</a>
</g>
</g>
<!-- Node17&#45;&gt;Node18 -->
<g id="edge17" class="edge"><title>Node17&#45;&gt;Node18</title>
<path fill="none" stroke="midnightblue" d="M2005.63,-62.0151C1988.82,-51.8999 1968.66,-39.7698 1953.39,-30.5765"/>
<polygon fill="midnightblue" stroke="midnightblue" points="2004.19,-65.2381 2014.57,-67.396 2007.8,-59.2405 2004.19,-65.2381"/>
</g>
<!-- Node19 -->
<g id="node19" class="node"><title>Node19</title>
<g id="a_node19"><a xlink:href="testNonEmpty_8cxx.html" target="_top" xlink:title="Modules/Common/test\l/testNonEmpty.cxx">
<polygon fill="none" stroke="black" points="2005,-0.5 2005,-30.5 2121,-30.5 2121,-0.5 2005,-0.5"/>
<text text-anchor="start" x="2013" y="-18.5" font-family="Helvetica,sans-Serif" font-size="10.00">Modules/Common/test</text>
<text text-anchor="middle" x="2063" y="-7.5" font-family="Helvetica,sans-Serif" font-size="10.00">/testNonEmpty.cxx</text>
</a>
</g>
</g>
<!-- Node17&#45;&gt;Node19 -->
<g id="edge18" class="edge"><title>Node17&#45;&gt;Node19</title>
<path fill="none" stroke="midnightblue" d="M2047.04,-57.9907C2050.58,-48.8044 2054.51,-38.5781 2057.59,-30.5765"/>
<polygon fill="midnightblue" stroke="midnightblue" points="2043.75,-56.8061 2043.42,-67.396 2050.28,-59.319 2043.75,-56.8061"/>
</g>
<!-- Node21 -->
<g id="node21" class="node"><title>Node21</title>
<g id="a_node21"><a xlink:href="EverIncreasingGraph_8cxx.html" target="_top" xlink:title="Modules/Daq/src/EverIncreasing\lGraph.cxx">
<polygon fill="none" stroke="black" points="2138.5,-0.5 2138.5,-30.5 2297.5,-30.5 2297.5,-0.5 2138.5,-0.5"/>
<text text-anchor="start" x="2146.5" y="-18.5" font-family="Helvetica,sans-Serif" font-size="10.00">Modules/Daq/src/EverIncreasing</text>
<text text-anchor="middle" x="2218" y="-7.5" font-family="Helvetica,sans-Serif" font-size="10.00">Graph.cxx</text>
</a>
</g>
</g>
<!-- Node20&#45;&gt;Node21 -->
<g id="edge20" class="edge"><title>Node20&#45;&gt;Node21</title>
<path fill="none" stroke="midnightblue" d="M2200.77,-57.9907C2204.58,-48.8044 2208.83,-38.5781 2212.15,-30.5765"/>
<polygon fill="midnightblue" stroke="midnightblue" points="2197.46,-56.8184 2196.86,-67.396 2203.93,-59.5036 2197.46,-56.8184"/>
</g>
<!-- Node23 -->
<g id="node23" class="node"><title>Node23</title>
<g id="a_node23"><a xlink:href="FakeCheck_8cxx.html" target="_top" xlink:title="Modules/Example/src\l/FakeCheck.cxx">
<polygon fill="none" stroke="black" points="2315.5,-0.5 2315.5,-30.5 2426.5,-30.5 2426.5,-0.5 2315.5,-0.5"/>
<text text-anchor="start" x="2323.5" y="-18.5" font-family="Helvetica,sans-Serif" font-size="10.00">Modules/Example/src</text>
<text text-anchor="middle" x="2371" y="-7.5" font-family="Helvetica,sans-Serif" font-size="10.00">/FakeCheck.cxx</text>
</a>
</g>
</g>
<!-- Node22&#45;&gt;Node23 -->
<g id="edge22" class="edge"><title>Node22&#45;&gt;Node23</title>
<path fill="none" stroke="midnightblue" d="M2353.13,-57.9907C2357.08,-48.8044 2361.49,-38.5781 2364.94,-30.5765"/>
<polygon fill="midnightblue" stroke="midnightblue" points="2349.82,-56.8271 2349.08,-67.396 2356.25,-59.5965 2349.82,-56.8271"/>
</g>
<!-- Node25 -->
<g id="node25" class="node"><title>Node25</title>
<g id="a_node25"><a xlink:href="SkeletonCheck_8cxx.html" target="_top" xlink:title="Modules/Skeleton/src\l/SkeletonCheck.cxx">
<polygon fill="none" stroke="black" points="2444.5,-0.5 2444.5,-30.5 2555.5,-30.5 2555.5,-0.5 2444.5,-0.5"/>
<text text-anchor="start" x="2452.5" y="-18.5" font-family="Helvetica,sans-Serif" font-size="10.00">Modules/Skeleton/src</text>
<text text-anchor="middle" x="2500" y="-7.5" font-family="Helvetica,sans-Serif" font-size="10.00">/SkeletonCheck.cxx</text>
</a>
</g>
</g>
<!-- Node24&#45;&gt;Node25 -->
<g id="edge24" class="edge"><title>Node24&#45;&gt;Node25</title>
<path fill="none" stroke="midnightblue" d="M2495.6,-57.4029C2496.57,-48.3703 2497.64,-38.4078 2498.48,-30.5765"/>
<polygon fill="midnightblue" stroke="midnightblue" points="2492.11,-57.0787 2494.52,-67.396 2499.07,-57.8282 2492.11,-57.0787"/>
</g>
<!-- Node27 -->
<g id="node27" class="node"><title>Node27</title>
<g id="a_node27"><a xlink:href="TOFCheckRawsMulti_8cxx.html" target="_top" xlink:title="Modules/TOF/src/TOFCheck\lRawsMulti.cxx">
<polygon fill="none" stroke="black" points="2580.5,-0.5 2580.5,-30.5 2723.5,-30.5 2723.5,-0.5 2580.5,-0.5"/>
<text text-anchor="start" x="2588.5" y="-18.5" font-family="Helvetica,sans-Serif" font-size="10.00">Modules/TOF/src/TOFCheck</text>
<text text-anchor="middle" x="2652" y="-7.5" font-family="Helvetica,sans-Serif" font-size="10.00">RawsMulti.cxx</text>
</a>
</g>
</g>
<!-- Node26&#45;&gt;Node27 -->
<g id="edge26" class="edge"><title>Node26&#45;&gt;Node27</title>
<path fill="none" stroke="midnightblue" d="M2652,-57.1081C2652,-48.1539 2652,-38.3227 2652,-30.5765"/>
<polygon fill="midnightblue" stroke="midnightblue" points="2648.5,-57.3959 2652,-67.396 2655.5,-57.396 2648.5,-57.3959"/>
</g>
<!-- Node29 -->
<g id="node29" class="node"><title>Node29</title>
<g id="a_node29"><a xlink:href="TOFCheckRawsTime_8cxx.html" target="_top" xlink:title="Modules/TOF/src/TOFCheck\lRawsTime.cxx">
<polygon fill="none" stroke="black" points="2744.5,-0.5 2744.5,-30.5 2887.5,-30.5 2887.5,-0.5 2744.5,-0.5"/>
<text text-anchor="start" x="2752.5" y="-18.5" font-family="Helvetica,sans-Serif" font-size="10.00">Modules/TOF/src/TOFCheck</text>
<text text-anchor="middle" x="2816" y="-7.5" font-family="Helvetica,sans-Serif" font-size="10.00">RawsTime.cxx</text>
</a>
</g>
</g>
<!-- Node28&#45;&gt;Node29 -->
<g id="edge28" class="edge"><title>Node28&#45;&gt;Node29</title>
<path fill="none" stroke="midnightblue" d="M2816,-57.1081C2816,-48.1539 2816,-38.3227 2816,-30.5765"/>
<polygon fill="midnightblue" stroke="midnightblue" points="2812.5,-57.3959 2816,-67.396 2819.5,-57.396 2812.5,-57.3959"/>
</g>
<!-- Node31 -->
<g id="node31" class="node"><title>Node31</title>
<g id="a_node31"><a xlink:href="TOFCheckRawsToT_8cxx.html" target="_top" xlink:title="Modules/TOF/src/TOFCheck\lRawsToT.cxx">
<polygon fill="none" stroke="black" points="2906.5,-0.5 2906.5,-30.5 3049.5,-30.5 3049.5,-0.5 2906.5,-0.5"/>
<text text-anchor="start" x="2914.5" y="-18.5" font-family="Helvetica,sans-Serif" font-size="10.00">Modules/TOF/src/TOFCheck</text>
<text text-anchor="middle" x="2978" y="-7.5" font-family="Helvetica,sans-Serif" font-size="10.00">RawsToT.cxx</text>
</a>
</g>
</g>
<!-- Node30&#45;&gt;Node31 -->
<g id="edge30" class="edge"><title>Node30&#45;&gt;Node31</title>
<path fill="none" stroke="midnightblue" d="M2978,-57.1081C2978,-48.1539 2978,-38.3227 2978,-30.5765"/>
<polygon fill="midnightblue" stroke="midnightblue" points="2974.5,-57.3959 2978,-67.396 2981.5,-57.396 2974.5,-57.3959"/>
</g>
</g>
</svg>
