<?xml version="1.0" encoding="UTF-8" standalone="no"?>
<!DOCTYPE svg PUBLIC "-//W3C//DTD SVG 1.1//EN"
 "http://www.w3.org/Graphics/SVG/1.1/DTD/svg11.dtd">
<!-- Generated by graphviz version 2.38.0 (20140413.2041)
 -->
<!-- Title: Framework/include/QualityControl/QcInfoLogger.h Pages: 1 -->
<!--zoomable 173 -->
<svg id="main" version="1.1" xmlns="http://www.w3.org/2000/svg" xmlns:xlink="http://www.w3.org/1999/xlink" xml:space="preserve" onload="init(evt)">
<style type="text/css"><![CDATA[
.edge:hover path { stroke: red; }
.edge:hover polygon { stroke: red; fill: red; }
]]></style>
<script type="text/javascript"><![CDATA[
var edges = document.getElementsByTagName('g');
if (edges && edges.length) {
  for (var i=0;i<edges.length;i++) {
    if (edges[i].id.substr(0,4)=='edge') {
      edges[i].setAttribute('class','edge');
    }
  }
}
]]></script>
        <defs>
                <circle id="rim" cx="0" cy="0" r="7"/>
                <circle id="rim2" cx="0" cy="0" r="3.5"/>
                <g id="zoomPlus">
                        <use xlink:href="#rim" fill="#404040">
                                <set attributeName="fill" to="#808080" begin="zoomplus.mouseover" end="zoomplus.mouseout"/>
                        </use>
                        <path d="M-4,0h8M0,-4v8" fill="none" stroke="white" stroke-width="1.5" pointer-events="none"/>
                </g>
                <g id="zoomMin">
                        <use xlink:href="#rim" fill="#404040">
                                <set attributeName="fill" to="#808080" begin="zoomminus.mouseover" end="zoomminus.mouseout"/>
                        </use>
                        <path d="M-4,0h8" fill="none" stroke="white" stroke-width="1.5" pointer-events="none"/>
                </g>
                <g id="dirArrow">
                        <path fill="none" stroke="white" stroke-width="1.5" d="M0,-3.0v7 M-2.5,-0.5L0,-3.0L2.5,-0.5"/>
                </g>
               <g id="resetDef">
                       <use xlink:href="#rim2" fill="#404040">
                               <set attributeName="fill" to="#808080" begin="reset.mouseover" end="reset.mouseout"/>
                       </use>
               </g>
        </defs>

<script type="text/javascript">
var viewWidth = 4216;
var viewHeight = 173;
var sectionId = 'dynsection-1';
</script>
<script xlink:href="svgpan.js"/>
<svg id="graph" class="graph">
<g id="viewport">
<title>Framework/include/QualityControl/QcInfoLogger.h</title>
<!-- Node1 -->
<g id="node1" class="node"><title>Node1</title>
<polygon fill="#bfbfbf" stroke="black" points="3038.5,-134.5 3038.5,-164.5 3171.5,-164.5 3171.5,-134.5 3038.5,-134.5"/>
<text text-anchor="start" x="3046.5" y="-152.5" font-family="Helvetica,sans-Serif" font-size="10.00">Framework/include/Quality</text>
<text text-anchor="middle" x="3105" y="-141.5" font-family="Helvetica,sans-Serif" font-size="10.00">Control/QcInfoLogger.h</text>
</g>
<!-- Node2 -->
<g id="node2" class="node"><title>Node2</title>
<g id="a_node2"><a xlink:href="Checker_8h.html" target="_top" xlink:title="Framework/include/Quality\lControl/Checker.h">
<polygon fill="none" stroke="black" points="777.5,-67.5 777.5,-97.5 910.5,-97.5 910.5,-67.5 777.5,-67.5"/>
<text text-anchor="start" x="785.5" y="-85.5" font-family="Helvetica,sans-Serif" font-size="10.00">Framework/include/Quality</text>
<text text-anchor="middle" x="844" y="-74.5" font-family="Helvetica,sans-Serif" font-size="10.00">Control/Checker.h</text>
</a>
</g>
</g>
<!-- Node1&#45;&gt;Node2 -->
<g id="edge1" class="edge"><title>Node1&#45;&gt;Node2</title>
<path fill="none" stroke="midnightblue" d="M3028.22,-146.293C2678.43,-136.237 1238.62,-94.8446 910.685,-85.4171"/>
<polygon fill="midnightblue" stroke="midnightblue" points="3028.16,-149.792 3038.25,-146.581 3028.36,-142.795 3028.16,-149.792"/>
</g>
<!-- Node12 -->
<g id="node12" class="node"><title>Node12</title>
<g id="a_node12"><a xlink:href="TaskFactory_8h.html" target="_top" xlink:title="Framework/include/Quality\lControl/TaskFactory.h">
<polygon fill="none" stroke="black" points="2153.5,-67.5 2153.5,-97.5 2286.5,-97.5 2286.5,-67.5 2153.5,-67.5"/>
<text text-anchor="start" x="2161.5" y="-85.5" font-family="Helvetica,sans-Serif" font-size="10.00">Framework/include/Quality</text>
<text text-anchor="middle" x="2220" y="-74.5" font-family="Helvetica,sans-Serif" font-size="10.00">Control/TaskFactory.h</text>
</a>
</g>
</g>
<!-- Node1&#45;&gt;Node12 -->
<g id="edge11" class="edge"><title>Node1&#45;&gt;Node12</title>
<path fill="none" stroke="midnightblue" d="M3028.34,-146.934C2884.34,-143.28 2563.75,-131.762 2296,-98 2292.93,-97.6135 2289.81,-97.1794 2286.65,-96.7094"/>
<polygon fill="midnightblue" stroke="midnightblue" points="3028.32,-150.435 3038.41,-147.184 3028.5,-143.437 3028.32,-150.435"/>
</g>
<!-- Node13 -->
<g id="node13" class="node"><title>Node13</title>
<g id="a_node13"><a xlink:href="TaskRunner_8cxx.html" target="_top" xlink:title="Framework/src/TaskRunner.cxx">
<polygon fill="none" stroke="black" points="1607.5,-6 1607.5,-25 1764.5,-25 1764.5,-6 1607.5,-6"/>
<text text-anchor="middle" x="1686" y="-13" font-family="Helvetica,sans-Serif" font-size="10.00">Framework/src/TaskRunner.cxx</text>
</a>
</g>
</g>
<!-- Node1&#45;&gt;Node13 -->
<g id="edge26" class="edge"><title>Node1&#45;&gt;Node13</title>
<path fill="none" stroke="midnightblue" d="M3028.01,-147.663C2864.74,-145.183 2471.93,-135.48 2145,-98 1988,-80.002 1803.49,-42.0491 1724.75,-25.0498"/>
<polygon fill="midnightblue" stroke="midnightblue" points="3028.37,-151.169 3038.42,-147.816 3028.48,-144.169 3028.37,-151.169"/>
</g>
<!-- Node22 -->
<g id="node22" class="node"><title>Node22</title>
<g id="a_node22"><a xlink:href="DatabaseFactory_8cxx.html" target="_top" xlink:title="Framework/src/DatabaseFactory.cxx">
<polygon fill="none" stroke="black" points="2304.5,-73 2304.5,-92 2483.5,-92 2483.5,-73 2304.5,-73"/>
<text text-anchor="middle" x="2394" y="-80" font-family="Helvetica,sans-Serif" font-size="10.00">Framework/src/DatabaseFactory.cxx</text>
</a>
</g>
</g>
<!-- Node1&#45;&gt;Node22 -->
<g id="edge21" class="edge"><title>Node1&#45;&gt;Node22</title>
<path fill="none" stroke="midnightblue" d="M3028.1,-143.718C2911.97,-136.143 2685.01,-119.961 2493,-98 2478.33,-96.3222 2462.49,-94.16 2447.87,-92.02"/>
<polygon fill="midnightblue" stroke="midnightblue" points="3028.1,-147.225 3038.3,-144.38 3028.55,-140.24 3028.1,-147.225"/>
</g>
<!-- Node23 -->
<g id="node23" class="node"><title>Node23</title>
<g id="a_node23"><a xlink:href="InformationService_8cxx.html" target="_top" xlink:title="Framework/src/Information\lService.cxx">
<polygon fill="none" stroke="black" points="2502,-67.5 2502,-97.5 2636,-97.5 2636,-67.5 2502,-67.5"/>
<text text-anchor="start" x="2510" y="-85.5" font-family="Helvetica,sans-Serif" font-size="10.00">Framework/src/Information</text>
<text text-anchor="middle" x="2569" y="-74.5" font-family="Helvetica,sans-Serif" font-size="10.00">Service.cxx</text>
</a>
</g>
</g>
<!-- Node1&#45;&gt;Node23 -->
<g id="edge22" class="edge"><title>Node1&#45;&gt;Node23</title>
<path fill="none" stroke="midnightblue" d="M3028.29,-141.87C2936.96,-133.559 2779.94,-117.95 2646,-98 2642.77,-97.519 2639.47,-97.0008 2636.14,-96.4566"/>
<polygon fill="midnightblue" stroke="midnightblue" points="3028.01,-145.359 3038.28,-142.774 3028.64,-138.387 3028.01,-145.359"/>
</g>
<!-- Node24 -->
<g id="node24" class="node"><title>Node24</title>
<g id="a_node24"><a xlink:href="MySqlDatabase_8cxx.html" target="_top" xlink:title="Framework/src/MySqlDatabase.cxx">
<polygon fill="none" stroke="black" points="2654.5,-73 2654.5,-92 2827.5,-92 2827.5,-73 2654.5,-73"/>
<text text-anchor="middle" x="2741" y="-80" font-family="Helvetica,sans-Serif" font-size="10.00">Framework/src/MySqlDatabase.cxx</text>
</a>
</g>
</g>
<!-- Node1&#45;&gt;Node24 -->
<g id="edge23" class="edge"><title>Node1&#45;&gt;Node24</title>
<path fill="none" stroke="midnightblue" d="M3028.26,-134.796C2955.9,-121.876 2849.73,-102.915 2788.77,-92.031"/>
<polygon fill="midnightblue" stroke="midnightblue" points="3027.78,-138.266 3038.24,-136.578 3029.01,-131.375 3027.78,-138.266"/>
</g>
<!-- Node25 -->
<g id="node25" class="node"><title>Node25</title>
<g id="a_node25"><a xlink:href="ObjectsManager_8cxx.html" target="_top" xlink:title="Framework/src/ObjectsManager.cxx">
<polygon fill="none" stroke="black" points="2845.5,-73 2845.5,-92 3020.5,-92 3020.5,-73 2845.5,-73"/>
<text text-anchor="middle" x="2933" y="-80" font-family="Helvetica,sans-Serif" font-size="10.00">Framework/src/ObjectsManager.cxx</text>
</a>
</g>
</g>
<!-- Node1&#45;&gt;Node25 -->
<g id="edge24" class="edge"><title>Node1&#45;&gt;Node25</title>
<path fill="none" stroke="midnightblue" d="M3058.12,-130.784C3024.77,-118.181 2981.45,-101.808 2955.51,-92.007"/>
<polygon fill="midnightblue" stroke="midnightblue" points="3057.09,-134.135 3067.68,-134.396 3059.56,-127.587 3057.09,-134.135"/>
</g>
<!-- Node26 -->
<g id="node26" class="node"><title>Node26</title>
<g id="a_node26"><a xlink:href="RepositoryBenchmark_8cxx.html" target="_top" xlink:title="Framework/src/Repository\lBenchmark.cxx">
<polygon fill="none" stroke="black" points="3039,-67.5 3039,-97.5 3171,-97.5 3171,-67.5 3039,-67.5"/>
<text text-anchor="start" x="3047" y="-85.5" font-family="Helvetica,sans-Serif" font-size="10.00">Framework/src/Repository</text>
<text text-anchor="middle" x="3105" y="-74.5" font-family="Helvetica,sans-Serif" font-size="10.00">Benchmark.cxx</text>
</a>
</g>
</g>
<!-- Node1&#45;&gt;Node26 -->
<g id="edge25" class="edge"><title>Node1&#45;&gt;Node26</title>
<path fill="none" stroke="midnightblue" d="M3105,-124.108C3105,-115.154 3105,-105.323 3105,-97.5765"/>
<polygon fill="midnightblue" stroke="midnightblue" points="3101.5,-124.396 3105,-134.396 3108.5,-124.396 3101.5,-124.396"/>
</g>
<!-- Node27 -->
<g id="node27" class="node"><title>Node27</title>
<g id="a_node27"><a xlink:href="testQcInfoLogger_8cxx.html" target="_top" xlink:title="Framework/test/testQcInfo\lLogger.cxx">
<polygon fill="none" stroke="black" points="3189,-67.5 3189,-97.5 3323,-97.5 3323,-67.5 3189,-67.5"/>
<text text-anchor="start" x="3197" y="-85.5" font-family="Helvetica,sans-Serif" font-size="10.00">Framework/test/testQcInfo</text>
<text text-anchor="middle" x="3256" y="-74.5" font-family="Helvetica,sans-Serif" font-size="10.00">Logger.cxx</text>
</a>
</g>
</g>
<!-- Node1&#45;&gt;Node27 -->
<g id="edge27" class="edge"><title>Node1&#45;&gt;Node27</title>
<path fill="none" stroke="midnightblue" d="M3147.03,-130.407C3171.14,-120.029 3200.95,-107.195 3223.3,-97.5765"/>
<polygon fill="midnightblue" stroke="midnightblue" points="3145.57,-127.227 3137.76,-134.396 3148.33,-133.657 3145.57,-127.227"/>
</g>
<!-- Node28 -->
<g id="node28" class="node"><title>Node28</title>
<g id="a_node28"><a xlink:href="DaqTask_8cxx.html" target="_top" xlink:title="Modules/Daq/src/DaqTask.cxx">
<polygon fill="none" stroke="black" points="3341,-73 3341,-92 3493,-92 3493,-73 3341,-73"/>
<text text-anchor="middle" x="3417" y="-80" font-family="Helvetica,sans-Serif" font-size="10.00">Modules/Daq/src/DaqTask.cxx</text>
</a>
</g>
</g>
<!-- Node1&#45;&gt;Node28 -->
<g id="edge28" class="edge"><title>Node1&#45;&gt;Node28</title>
<path fill="none" stroke="midnightblue" d="M3181.57,-132.547C3242.89,-119.773 3326.54,-102.346 3375.85,-92.072"/>
<polygon fill="midnightblue" stroke="midnightblue" points="3180.63,-129.17 3171.55,-134.636 3182.05,-136.022 3180.63,-129.17"/>
</g>
<!-- Node29 -->
<g id="node29" class="node"><title>Node29</title>
<g id="a_node29"><a xlink:href="DigitsQcTask_8cxx.html" target="_top" xlink:title="Modules/EMCAL/src/Digits\lQcTask.cxx">
<polygon fill="none" stroke="black" points="3511,-67.5 3511,-97.5 3647,-97.5 3647,-67.5 3511,-67.5"/>
<text text-anchor="start" x="3519" y="-85.5" font-family="Helvetica,sans-Serif" font-size="10.00">Modules/EMCAL/src/Digits</text>
<text text-anchor="middle" x="3579" y="-74.5" font-family="Helvetica,sans-Serif" font-size="10.00">QcTask.cxx</text>
</a>
</g>
</g>
<!-- Node1&#45;&gt;Node29 -->
<g id="edge29" class="edge"><title>Node1&#45;&gt;Node29</title>
<path fill="none" stroke="midnightblue" d="M3181.55,-140.133C3261.64,-131.059 3390.93,-115.506 3502,-98 3504.82,-97.5552 3507.7,-97.0859 3510.6,-96.5989"/>
<polygon fill="midnightblue" stroke="midnightblue" points="3181.1,-136.662 3171.55,-141.262 3181.88,-143.618 3181.1,-136.662"/>
</g>
<!-- Node30 -->
<g id="node30" class="node"><title>Node30</title>
<g id="a_node30"><a xlink:href="BenchmarkTask_8cxx.html" target="_top" xlink:title="Modules/Example/src\l/BenchmarkTask.cxx">
<polygon fill="none" stroke="black" points="3665.5,-67.5 3665.5,-97.5 3776.5,-97.5 3776.5,-67.5 3665.5,-67.5"/>
<text text-anchor="start" x="3673.5" y="-85.5" font-family="Helvetica,sans-Serif" font-size="10.00">Modules/Example/src</text>
<text text-anchor="middle" x="3721" y="-74.5" font-family="Helvetica,sans-Serif" font-size="10.00">/BenchmarkTask.cxx</text>
</a>
</g>
</g>
<!-- Node1&#45;&gt;Node30 -->
<g id="edge30" class="edge"><title>Node1&#45;&gt;Node30</title>
<path fill="none" stroke="midnightblue" d="M3181.97,-144.565C3288.84,-138.393 3487.99,-124.329 3656,-98 3659.08,-97.5167 3662.24,-96.9741 3665.42,-96.39"/>
<polygon fill="midnightblue" stroke="midnightblue" points="3181.71,-141.074 3171.92,-145.138 3182.1,-148.063 3181.71,-141.074"/>
</g>
<!-- Node31 -->
<g id="node31" class="node"><title>Node31</title>
<g id="a_node31"><a xlink:href="ExampleTask_8cxx.html" target="_top" xlink:title="Modules/Example/src\l/ExampleTask.cxx">
<polygon fill="none" stroke="black" points="3794.5,-67.5 3794.5,-97.5 3905.5,-97.5 3905.5,-67.5 3794.5,-67.5"/>
<text text-anchor="start" x="3802.5" y="-85.5" font-family="Helvetica,sans-Serif" font-size="10.00">Modules/Example/src</text>
<text text-anchor="middle" x="3850" y="-74.5" font-family="Helvetica,sans-Serif" font-size="10.00">/ExampleTask.cxx</text>
</a>
</g>
</g>
<!-- Node1&#45;&gt;Node31 -->
<g id="edge31" class="edge"><title>Node1&#45;&gt;Node31</title>
<path fill="none" stroke="midnightblue" d="M3181.94,-146.521C3308.54,-142.43 3568.46,-130.524 3786,-98 3788.7,-97.5957 3791.46,-97.1398 3794.24,-96.6454"/>
<polygon fill="midnightblue" stroke="midnightblue" points="3181.47,-143.034 3171.58,-146.847 3181.69,-150.03 3181.47,-143.034"/>
</g>
<!-- Node32 -->
<g id="node32" class="node"><title>Node32</title>
<g id="a_node32"><a xlink:href="SkeletonTask_8cxx.html" target="_top" xlink:title="Modules/Skeleton/src\l/SkeletonTask.cxx">
<polygon fill="none" stroke="black" points="3923.5,-67.5 3923.5,-97.5 4034.5,-97.5 4034.5,-67.5 3923.5,-67.5"/>
<text text-anchor="start" x="3931.5" y="-85.5" font-family="Helvetica,sans-Serif" font-size="10.00">Modules/Skeleton/src</text>
<text text-anchor="middle" x="3979" y="-74.5" font-family="Helvetica,sans-Serif" font-size="10.00">/SkeletonTask.cxx</text>
</a>
</g>
</g>
<!-- Node1&#45;&gt;Node32 -->
<g id="edge32" class="edge"><title>Node1&#45;&gt;Node32</title>
<path fill="none" stroke="midnightblue" d="M3181.59,-147.811C3325.84,-145.61 3647.37,-136.407 3915,-98 3917.71,-97.6116 3920.47,-97.1686 3923.25,-96.6846"/>
<polygon fill="midnightblue" stroke="midnightblue" points="3181.46,-144.312 3171.52,-147.958 3181.56,-151.312 3181.46,-144.312"/>
</g>
<!-- Node33 -->
<g id="node33" class="node"><title>Node33</title>
<g id="a_node33"><a xlink:href="TOFTask_8cxx.html" target="_top" xlink:title="Modules/TOF/src/TOFTask.cxx">
<polygon fill="none" stroke="black" points="4052.5,-73 4052.5,-92 4207.5,-92 4207.5,-73 4052.5,-73"/>
<text text-anchor="middle" x="4130" y="-80" font-family="Helvetica,sans-Serif" font-size="10.00">Modules/TOF/src/TOFTask.cxx</text>
</a>
</g>
</g>
<!-- Node1&#45;&gt;Node33 -->
<g id="edge33" class="edge"><title>Node1&#45;&gt;Node33</title>
<path fill="none" stroke="midnightblue" d="M3181.78,-147.314C3342.32,-144.187 3725.06,-133.349 4044,-98 4057.39,-96.5155 4071.87,-94.3107 4085.06,-92.0658"/>
<polygon fill="midnightblue" stroke="midnightblue" points="3181.46,-143.819 3171.53,-147.509 3181.59,-150.818 3181.46,-143.819"/>
</g>
<!-- Node3 -->
<g id="node3" class="node"><title>Node3</title>
<g id="a_node3"><a xlink:href="Checker_8cxx.html" target="_top" xlink:title="Framework/src/Checker.cxx">
<polygon fill="none" stroke="black" points="0,-6 0,-25 140,-25 140,-6 0,-6"/>
<text text-anchor="middle" x="70" y="-13" font-family="Helvetica,sans-Serif" font-size="10.00">Framework/src/Checker.cxx</text>
</a>
</g>
</g>
<!-- Node2&#45;&gt;Node3 -->
<g id="edge2" class="edge"><title>Node2&#45;&gt;Node3</title>
<path fill="none" stroke="midnightblue" d="M767.022,-78.6498C638.544,-73.279 372.454,-59.5389 149,-31 136.828,-29.4454 123.689,-27.2462 111.687,-25.0293"/>
<polygon fill="midnightblue" stroke="midnightblue" points="767.018,-82.1525 777.154,-79.0678 767.306,-75.1584 767.018,-82.1525"/>
</g>
<!-- Node4 -->
<g id="node4" class="node"><title>Node4</title>
<g id="a_node4"><a xlink:href="CheckerFactory_8cxx.html" target="_top" xlink:title="Framework/src/CheckerFactory.cxx">
<polygon fill="none" stroke="black" points="158.5,-6 158.5,-25 331.5,-25 331.5,-6 158.5,-6"/>
<text text-anchor="middle" x="245" y="-13" font-family="Helvetica,sans-Serif" font-size="10.00">Framework/src/CheckerFactory.cxx</text>
</a>
</g>
</g>
<!-- Node2&#45;&gt;Node4 -->
<g id="edge3" class="edge"><title>Node2&#45;&gt;Node4</title>
<path fill="none" stroke="midnightblue" d="M766.968,-74.968C668.156,-66.3134 491.547,-49.9148 341,-31 327.119,-29.256 312.148,-27.1186 298.252,-25.0263"/>
<polygon fill="midnightblue" stroke="midnightblue" points="766.896,-78.4749 777.162,-75.8575 767.504,-71.5014 766.896,-78.4749"/>
</g>
<!-- Node5 -->
<g id="node5" class="node"><title>Node5</title>
<g id="a_node5"><a xlink:href="runBasic_8cxx.html" target="_top" xlink:title="This is an executable showing QC Task&#39;s usage in Data Processing Layer. ">
<polygon fill="none" stroke="black" points="350,-6 350,-25 492,-25 492,-6 350,-6"/>
<text text-anchor="middle" x="421" y="-13" font-family="Helvetica,sans-Serif" font-size="10.00">Framework/src/runBasic.cxx</text>
</a>
</g>
</g>
<!-- Node2&#45;&gt;Node5 -->
<g id="edge4" class="edge"><title>Node2&#45;&gt;Node5</title>
<path fill="none" stroke="midnightblue" d="M767.179,-70.9316C697.59,-61.1817 592.285,-45.9885 501,-31 489.857,-29.1704 477.866,-27.0683 466.645,-25.0426"/>
<polygon fill="midnightblue" stroke="midnightblue" points="766.793,-74.4116 777.181,-72.3299 767.762,-67.479 766.793,-74.4116"/>
</g>
<!-- Node6 -->
<g id="node6" class="node"><title>Node6</title>
<g id="a_node6"><a xlink:href="runMergerTest_8cxx.html" target="_top" xlink:title="This is DPL workflow to see HistoMerger in action. ">
<polygon fill="none" stroke="black" points="510.5,-6 510.5,-25 677.5,-25 677.5,-6 510.5,-6"/>
<text text-anchor="middle" x="594" y="-13" font-family="Helvetica,sans-Serif" font-size="10.00">Framework/src/runMergerTest.cxx</text>
</a>
</g>
</g>
<!-- Node2&#45;&gt;Node6 -->
<g id="edge5" class="edge"><title>Node2&#45;&gt;Node6</title>
<path fill="none" stroke="midnightblue" d="M780.193,-64.9102C731.232,-52.1803 665.643,-35.1273 626.803,-25.0287"/>
<polygon fill="midnightblue" stroke="midnightblue" points="779.503,-68.347 790.062,-67.476 781.264,-61.5722 779.503,-68.347"/>
</g>
<!-- Node7 -->
<g id="node7" class="node"><title>Node7</title>
<g id="a_node7"><a xlink:href="runQC_8cxx.html" target="_top" xlink:title="This is an executable which generates a QC topology given a configuration file. ">
<polygon fill="none" stroke="black" points="696,-6 696,-25 828,-25 828,-6 696,-6"/>
<text text-anchor="middle" x="762" y="-13" font-family="Helvetica,sans-Serif" font-size="10.00">Framework/src/runQC.cxx</text>
</a>
</g>
</g>
<!-- Node2&#45;&gt;Node7 -->
<g id="edge6" class="edge"><title>Node2&#45;&gt;Node7</title>
<path fill="none" stroke="midnightblue" d="M818.149,-61.008C802.926,-48.9412 784.461,-34.3046 772.968,-25.1945"/>
<polygon fill="midnightblue" stroke="midnightblue" points="816.196,-63.9268 826.207,-67.396 820.545,-58.4412 816.196,-63.9268"/>
</g>
<!-- Node8 -->
<g id="node8" class="node"><title>Node8</title>
<g id="a_node8"><a xlink:href="testChecker_8cxx.html" target="_top" xlink:title="Framework/test/testChecker.cxx">
<polygon fill="none" stroke="black" points="846,-6 846,-25 1006,-25 1006,-6 846,-6"/>
<text text-anchor="middle" x="926" y="-13" font-family="Helvetica,sans-Serif" font-size="10.00">Framework/test/testChecker.cxx</text>
</a>
</g>
</g>
<!-- Node2&#45;&gt;Node8 -->
<g id="edge7" class="edge"><title>Node2&#45;&gt;Node8</title>
<path fill="none" stroke="midnightblue" d="M869.851,-61.008C885.074,-48.9412 903.539,-34.3046 915.032,-25.1945"/>
<polygon fill="midnightblue" stroke="midnightblue" points="867.455,-58.4412 861.793,-67.396 871.804,-63.9268 867.455,-58.4412"/>
</g>
<!-- Node9 -->
<g id="node9" class="node"><title>Node9</title>
<g id="a_node9"><a xlink:href="testWorkflow_8cxx.html" target="_top" xlink:title="Framework/test/testWorkflow.cxx">
<polygon fill="none" stroke="black" points="1024,-6 1024,-25 1188,-25 1188,-6 1024,-6"/>
<text text-anchor="middle" x="1106" y="-13" font-family="Helvetica,sans-Serif" font-size="10.00">Framework/test/testWorkflow.cxx</text>
</a>
</g>
</g>
<!-- Node2&#45;&gt;Node9 -->
<g id="edge8" class="edge"><title>Node2&#45;&gt;Node9</title>
<path fill="none" stroke="midnightblue" d="M910.548,-64.9899C961.894,-52.2516 1030.83,-35.1484 1071.62,-25.0287"/>
<polygon fill="midnightblue" stroke="midnightblue" points="909.391,-61.671 900.528,-67.476 911.076,-68.465 909.391,-61.671"/>
</g>
<!-- Node10 -->
<g id="node10" class="node"><title>Node10</title>
<polygon fill="none" stroke="#bfbfbf" points="1206,-6 1206,-25 1424,-25 1424,-6 1206,-6"/>
<text text-anchor="middle" x="1315" y="-13" font-family="Helvetica,sans-Serif" font-size="10.00">Modules/EMCAL/src/runQCEMCALDigits.cxx</text>
</g>
<!-- Node2&#45;&gt;Node10 -->
<g id="edge9" class="edge"><title>Node2&#45;&gt;Node10</title>
<path fill="none" stroke="midnightblue" d="M921.151,-70.8528C1013.92,-58.0508 1167.76,-36.82 1253.12,-25.0392"/>
<polygon fill="midnightblue" stroke="midnightblue" points="920.41,-67.4218 910.983,-72.2561 921.367,-74.3561 920.41,-67.4218"/>
</g>
<!-- Node11 -->
<g id="node11" class="node"><title>Node11</title>
<g id="a_node11"><a xlink:href="runTOF_8cxx.html" target="_top" xlink:title="This is an executable showing QC Task&#39;s usage in Data Processing Layer. ">
<polygon fill="none" stroke="black" points="1442.5,-6 1442.5,-25 1589.5,-25 1589.5,-6 1442.5,-6"/>
<text text-anchor="middle" x="1516" y="-13" font-family="Helvetica,sans-Serif" font-size="10.00">Modules/TOF/src/runTOF.cxx</text>
</a>
</g>
</g>
<!-- Node2&#45;&gt;Node11 -->
<g id="edge10" class="edge"><title>Node2&#45;&gt;Node11</title>
<path fill="none" stroke="midnightblue" d="M921.147,-77.0438C1033.9,-70.0423 1250.17,-54.762 1433,-31 1445.48,-29.3787 1458.94,-27.2103 1471.31,-25.0454"/>
<polygon fill="midnightblue" stroke="midnightblue" points="920.66,-73.567 910.894,-77.6753 921.09,-80.5538 920.66,-73.567"/>
</g>
<!-- Node12&#45;&gt;Node13 -->
<g id="edge12" class="edge"><title>Node12&#45;&gt;Node13</title>
<path fill="none" stroke="midnightblue" d="M2143.19,-74.0639C2054.02,-65.1432 1902.59,-49.1064 1773,-31 1760.41,-29.2413 1746.84,-27.0988 1734.25,-25.0062"/>
<polygon fill="midnightblue" stroke="midnightblue" points="2142.92,-77.5543 2153.22,-75.0633 2143.61,-70.5888 2142.92,-77.5543"/>
</g>
<!-- Node14 -->
<g id="node14" class="node"><title>Node14</title>
<g id="a_node14"><a xlink:href="testTaskInterface_8cxx.html" target="_top" xlink:title="Framework/test/testTaskInterface.cxx">
<polygon fill="none" stroke="black" points="1782.5,-6 1782.5,-25 1965.5,-25 1965.5,-6 1782.5,-6"/>
<text text-anchor="middle" x="1874" y="-13" font-family="Helvetica,sans-Serif" font-size="10.00">Framework/test/testTaskInterface.cxx</text>
</a>
</g>
</g>
<!-- Node12&#45;&gt;Node14 -->
<g id="edge13" class="edge"><title>Node12&#45;&gt;Node14</title>
<path fill="none" stroke="midnightblue" d="M2143.38,-67.1052C2074.67,-54.1983 1976.18,-35.6964 1919.29,-25.008"/>
<polygon fill="midnightblue" stroke="midnightblue" points="2142.81,-70.5608 2153.29,-68.9673 2144.11,-63.6811 2142.81,-70.5608"/>
</g>
<!-- Node15 -->
<g id="node15" class="node"><title>Node15</title>
<g id="a_node15"><a xlink:href="testQcDaq_8cxx.html" target="_top" xlink:title="Modules/Daq/test/testQcDaq.cxx">
<polygon fill="none" stroke="black" points="1983.5,-6 1983.5,-25 2146.5,-25 2146.5,-6 1983.5,-6"/>
<text text-anchor="middle" x="2065" y="-13" font-family="Helvetica,sans-Serif" font-size="10.00">Modules/Daq/test/testQcDaq.cxx</text>
</a>
</g>
</g>
<!-- Node12&#45;&gt;Node15 -->
<g id="edge14" class="edge"><title>Node12&#45;&gt;Node15</title>
<path fill="none" stroke="midnightblue" d="M2176.98,-63.4585C2147.03,-50.9001 2108.46,-34.724 2085.29,-25.007"/>
<polygon fill="midnightblue" stroke="midnightblue" points="2175.79,-66.7563 2186.37,-67.396 2178.5,-60.301 2175.79,-66.7563"/>
</g>
<!-- Node16 -->
<g id="node16" class="node"><title>Node16</title>
<g id="a_node16"><a xlink:href="testEMCAL_8cxx.html" target="_top" xlink:title="Modules/EMCAL/test\l/testEMCAL.cxx">
<polygon fill="none" stroke="black" points="2165,-0.5 2165,-30.5 2275,-30.5 2275,-0.5 2165,-0.5"/>
<text text-anchor="start" x="2173" y="-18.5" font-family="Helvetica,sans-Serif" font-size="10.00">Modules/EMCAL/test</text>
<text text-anchor="middle" x="2220" y="-7.5" font-family="Helvetica,sans-Serif" font-size="10.00">/testEMCAL.cxx</text>
</a>
</g>
</g>
<!-- Node12&#45;&gt;Node16 -->
<g id="edge15" class="edge"><title>Node12&#45;&gt;Node16</title>
<path fill="none" stroke="midnightblue" d="M2220,-57.1081C2220,-48.1539 2220,-38.3227 2220,-30.5765"/>
<polygon fill="midnightblue" stroke="midnightblue" points="2216.5,-57.3959 2220,-67.396 2223.5,-57.396 2216.5,-57.3959"/>
</g>
<!-- Node17 -->
<g id="node17" class="node"><title>Node17</title>
<polygon fill="none" stroke="#bfbfbf" points="2293,-0.5 2293,-30.5 2407,-30.5 2407,-0.5 2293,-0.5"/>
<text text-anchor="start" x="2301" y="-18.5" font-family="Helvetica,sans-Serif" font-size="10.00">Modules/Example/test</text>
<text text-anchor="middle" x="2350" y="-7.5" font-family="Helvetica,sans-Serif" font-size="10.00">/testFactory.cxx</text>
</g>
<!-- Node12&#45;&gt;Node17 -->
<g id="edge16" class="edge"><title>Node12&#45;&gt;Node17</title>
<path fill="none" stroke="midnightblue" d="M2257.29,-62.8533C2277.85,-52.5761 2302.95,-40.0252 2321.85,-30.5765"/>
<polygon fill="midnightblue" stroke="midnightblue" points="2255.59,-59.7933 2248.21,-67.396 2258.72,-66.0543 2255.59,-59.7933"/>
</g>
<!-- Node18 -->
<g id="node18" class="node"><title>Node18</title>
<g id="a_node18"><a xlink:href="testQcExample_8cxx.html" target="_top" xlink:title="Modules/Example/test\l/testQcExample.cxx">
<polygon fill="none" stroke="black" points="2425,-0.5 2425,-30.5 2539,-30.5 2539,-0.5 2425,-0.5"/>
<text text-anchor="start" x="2433" y="-18.5" font-family="Helvetica,sans-Serif" font-size="10.00">Modules/Example/test</text>
<text text-anchor="middle" x="2482" y="-7.5" font-family="Helvetica,sans-Serif" font-size="10.00">/testQcExample.cxx</text>
</a>
</g>
</g>
<!-- Node12&#45;&gt;Node18 -->
<g id="edge17" class="edge"><title>Node12&#45;&gt;Node18</title>
<path fill="none" stroke="midnightblue" d="M2286.3,-65.0515C2329.13,-54.425 2384.29,-40.7414 2425.12,-30.6109"/>
<polygon fill="midnightblue" stroke="midnightblue" points="2285.39,-61.671 2276.53,-67.476 2287.08,-68.465 2285.39,-61.671"/>
</g>
<!-- Node19 -->
<g id="node19" class="node"><title>Node19</title>
<polygon fill="none" stroke="#bfbfbf" points="2557,-0.5 2557,-30.5 2671,-30.5 2671,-0.5 2557,-0.5"/>
<text text-anchor="start" x="2565" y="-18.5" font-family="Helvetica,sans-Serif" font-size="10.00">Modules/Skeleton/test</text>
<text text-anchor="middle" x="2614" y="-7.5" font-family="Helvetica,sans-Serif" font-size="10.00">/.testEmpty.cxx</text>
</g>
<!-- Node12&#45;&gt;Node19 -->
<g id="edge18" class="edge"><title>Node12&#45;&gt;Node19</title>
<path fill="none" stroke="midnightblue" d="M2296.75,-66.9308C2409.31,-48.5314 2439.83,-50.5817 2548,-31 2550.89,-30.4776 2553.84,-29.9189 2556.81,-29.3361"/>
<polygon fill="midnightblue" stroke="midnightblue" points="2295.99,-63.5088 2286.7,-68.5928 2297.13,-70.4151 2295.99,-63.5088"/>
</g>
<!-- Node20 -->
<g id="node20" class="node"><title>Node20</title>
<g id="a_node20"><a xlink:href="testQcSkeleton_8cxx.html" target="_top" xlink:title="Modules/Skeleton/test\l/testQcSkeleton.cxx">
<polygon fill="none" stroke="black" points="2689,-0.5 2689,-30.5 2803,-30.5 2803,-0.5 2689,-0.5"/>
<text text-anchor="start" x="2697" y="-18.5" font-family="Helvetica,sans-Serif" font-size="10.00">Modules/Skeleton/test</text>
<text text-anchor="middle" x="2746" y="-7.5" font-family="Helvetica,sans-Serif" font-size="10.00">/testQcSkeleton.cxx</text>
</a>
</g>
</g>
<!-- Node12&#45;&gt;Node20 -->
<g id="edge19" class="edge"><title>Node12&#45;&gt;Node20</title>
<path fill="none" stroke="midnightblue" d="M2296.75,-66.9954C2467.47,-43.449 2513.86,-56.9374 2680,-31 2682.9,-30.5476 2685.86,-30.0453 2688.84,-29.5071"/>
<polygon fill="midnightblue" stroke="midnightblue" points="2296.09,-63.5546 2286.67,-68.4091 2297.06,-70.4868 2296.09,-63.5546"/>
</g>
<!-- Node21 -->
<g id="node21" class="node"><title>Node21</title>
<g id="a_node21"><a xlink:href="testTOF_8cxx.html" target="_top" xlink:title="Modules/TOF/test/testTOF.cxx">
<polygon fill="none" stroke="black" points="2821.5,-6 2821.5,-25 2974.5,-25 2974.5,-6 2821.5,-6"/>
<text text-anchor="middle" x="2898" y="-13" font-family="Helvetica,sans-Serif" font-size="10.00">Modules/TOF/test/testTOF.cxx</text>
</a>
</g>
</g>
<!-- Node12&#45;&gt;Node21 -->
<g id="edge20" class="edge"><title>Node12&#45;&gt;Node21</title>
<path fill="none" stroke="midnightblue" d="M2296.63,-67.0361C2525.7,-37.9836 2586.95,-57.7584 2812,-31 2825.23,-29.4268 2839.53,-27.2218 2852.59,-25.0053"/>
<polygon fill="midnightblue" stroke="midnightblue" points="2296.13,-63.5719 2286.66,-68.3185 2297.02,-70.5148 2296.13,-63.5719"/>
</g>
</g>
</svg>
        <g id="navigator" transform="translate(0 0)" fill="#404254">
                <rect fill="#f2f5e9" fill-opacity="0.5" stroke="#606060" stroke-width=".5" x="0" y="0" width="60" height="60"/>
                <use id="zoomplus" xlink:href="#zoomPlus" x="17" y="9" onmousedown="handleZoom(evt,'in')"/>
                <use id="zoomminus" xlink:href="#zoomMin" x="42" y="9" onmousedown="handleZoom(evt,'out')"/>
                <use id="reset" xlink:href="#resetDef" x="30" y="36" onmousedown="handleReset()"/>
                <g id="arrowUp" xlink:href="#dirArrow" transform="translate(30 24)" onmousedown="handlePan(0,-1)">
                  <use xlink:href="#rim" fill="#404040">
                        <set attributeName="fill" to="#808080" begin="arrowUp.mouseover" end="arrowUp.mouseout"/>
                  </use>
                  <path fill="none" stroke="white" stroke-width="1.5" d="M0,-3.0v7 M-2.5,-0.5L0,-3.0L2.5,-0.5"/>
                </g>
                <g id="arrowRight" xlink:href="#dirArrow" transform="rotate(90) translate(36 -43)" onmousedown="handlePan(1,0)">
                  <use xlink:href="#rim" fill="#404040">
                        <set attributeName="fill" to="#808080" begin="arrowRight.mouseover" end="arrowRight.mouseout"/>
                  </use>
                  <path fill="none" stroke="white" stroke-width="1.5" d="M0,-3.0v7 M-2.5,-0.5L0,-3.0L2.5,-0.5"/>
                </g>
                <g id="arrowDown" xlink:href="#dirArrow" transform="rotate(180) translate(-30 -48)" onmousedown="handlePan(0,1)">
                  <use xlink:href="#rim" fill="#404040">
                        <set attributeName="fill" to="#808080" begin="arrowDown.mouseover" end="arrowDown.mouseout"/>
                  </use>
                  <path fill="none" stroke="white" stroke-width="1.5" d="M0,-3.0v7 M-2.5,-0.5L0,-3.0L2.5,-0.5"/>
                </g>
                <g id="arrowLeft" xlink:href="#dirArrow" transform="rotate(270) translate(-36 17)" onmousedown="handlePan(-1,0)">
                  <use xlink:href="#rim" fill="#404040">
                        <set attributeName="fill" to="#808080" begin="arrowLeft.mouseover" end="arrowLeft.mouseout"/>
                  </use>
                  <path fill="none" stroke="white" stroke-width="1.5" d="M0,-3.0v7 M-2.5,-0.5L0,-3.0L2.5,-0.5"/>
                </g>
        </g>
        <svg viewBox="0 0 15 15" width="100%" height="30px" preserveAspectRatio="xMaxYMin meet">
         <g id="arrow_out" transform="scale(0.3 0.3)">
          <a xlink:href="QcInfoLogger_8h__dep__incl_org.svg" target="_base">
           <rect id="button" ry="5" rx="5" y="6" x="6" height="38" width="38"
                fill="#f2f5e9" fill-opacity="0.5" stroke="#606060" stroke-width="1.0"/>
           <path id="arrow"
             d="M 11.500037,31.436501 C 11.940474,20.09759 22.043105,11.32322 32.158766,21.979434 L 37.068811,17.246167 C 37.068811,17.246167 37.088388,32 37.088388,32 L 22.160133,31.978069 C 22.160133,31.978069 26.997745,27.140456 26.997745,27.140456 C 18.528582,18.264221 13.291696,25.230495 11.500037,31.436501 z"
             style="fill:#404040;"/>
          </a>
         </g>
        </svg>
</svg>
