<?xml version="1.0" encoding="UTF-8" standalone="no"?>
<!DOCTYPE svg PUBLIC "-//W3C//DTD SVG 1.1//EN"
 "http://www.w3.org/Graphics/SVG/1.1/DTD/svg11.dtd">
<!-- Generated by graphviz version 2.38.0 (20140413.2041)
 -->
<!-- Title: Framework/src/runQC.cxx Pages: 1 -->
<svg width="1832pt" height="442pt"
 viewBox="0.00 0.00 1832.00 442.00" xmlns="http://www.w3.org/2000/svg" xmlns:xlink="http://www.w3.org/1999/xlink">
<g id="graph0" class="graph" transform="scale(1 1) rotate(0) translate(4 438)">
<title>Framework/src/runQC.cxx</title>
<!-- Node1 -->
<g id="node1" class="node"><title>Node1</title>
<polygon fill="#bfbfbf" stroke="black" points="348,-414.5 348,-433.5 480,-433.5 480,-414.5 348,-414.5"/>
<text text-anchor="middle" x="414" y="-421.5" font-family="Helvetica,sans-Serif" font-size="10.00">Framework/src/runQC.cxx</text>
</g>
<!-- Node2 -->
<g id="node2" class="node"><title>Node2</title>
<polygon fill="none" stroke="#bfbfbf" points="0,-353 0,-372 138,-372 138,-353 0,-353"/>
<text text-anchor="middle" x="69" y="-360" font-family="Helvetica,sans-Serif" font-size="10.00">Framework/DataSampling.h</text>
</g>
<!-- Node1&#45;&gt;Node2 -->
<g id="edge1" class="edge"><title>Node1&#45;&gt;Node2</title>
<path fill="none" stroke="midnightblue" d="M361.77,-414.464C307.914,-405.6 221.522,-391.206 147,-378 139.645,-376.697 131.905,-375.295 124.274,-373.894"/>
<polygon fill="midnightblue" stroke="midnightblue" points="124.815,-370.435 114.346,-372.063 123.545,-377.319 124.815,-370.435"/>
</g>
<!-- Node3 -->
<g id="node3" class="node"><title>Node3</title>
<g id="a_node3"><a xlink:href="InfrastructureGenerator_8h.html" target="_top" xlink:title="QualityControl/Infrastructure\lGenerator.h">
<polygon fill="none" stroke="black" points="156,-347.5 156,-377.5 296,-377.5 296,-347.5 156,-347.5"/>
<text text-anchor="start" x="164" y="-365.5" font-family="Helvetica,sans-Serif" font-size="10.00">QualityControl/Infrastructure</text>
<text text-anchor="middle" x="226" y="-354.5" font-family="Helvetica,sans-Serif" font-size="10.00">Generator.h</text>
</a>
</g>
</g>
<!-- Node1&#45;&gt;Node3 -->
<g id="edge2" class="edge"><title>Node1&#45;&gt;Node3</title>
<path fill="none" stroke="midnightblue" d="M387.064,-414.475C359.223,-405.664 315.003,-391.668 279.935,-380.57"/>
<polygon fill="midnightblue" stroke="midnightblue" points="280.898,-377.204 270.308,-377.523 278.786,-383.877 280.898,-377.204"/>
</g>
<!-- Node7 -->
<g id="node7" class="node"><title>Node7</title>
<polygon fill="none" stroke="#bfbfbf" points="314.5,-353 314.5,-372 385.5,-372 385.5,-353 314.5,-353"/>
<text text-anchor="middle" x="350" y="-360" font-family="Helvetica,sans-Serif" font-size="10.00">FairLogger.h</text>
</g>
<!-- Node1&#45;&gt;Node7 -->
<g id="edge6" class="edge"><title>Node1&#45;&gt;Node7</title>
<path fill="none" stroke="midnightblue" d="M404.83,-414.475C394.85,-405.197 378.688,-390.171 366.491,-378.831"/>
<polygon fill="midnightblue" stroke="midnightblue" points="368.86,-376.255 359.153,-372.009 364.093,-381.381 368.86,-376.255"/>
</g>
<!-- Node8 -->
<g id="node8" class="node"><title>Node8</title>
<polygon fill="none" stroke="#bfbfbf" points="614,-62 614,-81 666,-81 666,-62 614,-62"/>
<text text-anchor="middle" x="640" y="-69" font-family="Helvetica,sans-Serif" font-size="10.00">memory</text>
</g>
<!-- Node1&#45;&gt;Node8 -->
<g id="edge7" class="edge"><title>Node1&#45;&gt;Node8</title>
<path fill="none" stroke="midnightblue" d="M414,-414.491C414,-394.736 414,-344.224 414,-302 414,-302 414,-302 414,-188 414,-103.895 539.638,-80.9987 603.563,-74.7923"/>
<polygon fill="midnightblue" stroke="midnightblue" points="603.979,-78.2692 613.633,-73.9032 603.364,-71.2963 603.979,-78.2692"/>
</g>
<!-- Node9 -->
<g id="node9" class="node"><title>Node9</title>
<polygon fill="none" stroke="#bfbfbf" points="442.5,-353 442.5,-372 491.5,-372 491.5,-353 442.5,-353"/>
<text text-anchor="middle" x="467" y="-360" font-family="Helvetica,sans-Serif" font-size="10.00">random</text>
</g>
<!-- Node1&#45;&gt;Node9 -->
<g id="edge8" class="edge"><title>Node1&#45;&gt;Node9</title>
<path fill="none" stroke="midnightblue" d="M421.594,-414.475C429.701,-405.373 442.735,-390.741 452.763,-379.483"/>
<polygon fill="midnightblue" stroke="midnightblue" points="455.383,-381.804 459.42,-372.009 450.156,-377.148 455.383,-381.804"/>
</g>
<!-- Node10 -->
<g id="node10" class="node"><title>Node10</title>
<polygon fill="none" stroke="#bfbfbf" points="510,-353 510,-372 670,-372 670,-353 510,-353"/>
<text text-anchor="middle" x="590" y="-360" font-family="Helvetica,sans-Serif" font-size="10.00">Framework/runDataProcessing.h</text>
</g>
<!-- Node1&#45;&gt;Node10 -->
<g id="edge9" class="edge"><title>Node1&#45;&gt;Node10</title>
<path fill="none" stroke="midnightblue" d="M439.217,-414.475C469.668,-404.18 521.049,-386.81 555.243,-375.25"/>
<polygon fill="midnightblue" stroke="midnightblue" points="556.478,-378.527 564.83,-372.009 554.236,-371.896 556.478,-378.527"/>
</g>
<!-- Node11 -->
<g id="node11" class="node"><title>Node11</title>
<g id="a_node11"><a xlink:href="Checker_8h.html" target="_top" xlink:title="QualityControl/Checker.h">
<polygon fill="none" stroke="black" points="1287.5,-353 1287.5,-372 1414.5,-372 1414.5,-353 1287.5,-353"/>
<text text-anchor="middle" x="1351" y="-360" font-family="Helvetica,sans-Serif" font-size="10.00">QualityControl/Checker.h</text>
</a>
</g>
</g>
<!-- Node1&#45;&gt;Node11 -->
<g id="edge10" class="edge"><title>Node1&#45;&gt;Node11</title>
<path fill="none" stroke="midnightblue" d="M480.261,-418.792C650.054,-408.01 1099.82,-379.45 1277.4,-368.174"/>
<polygon fill="midnightblue" stroke="midnightblue" points="1277.67,-371.664 1287.42,-367.537 1277.22,-364.678 1277.67,-371.664"/>
</g>
<!-- Node4 -->
<g id="node4" class="node"><title>Node4</title>
<polygon fill="none" stroke="#bfbfbf" points="1049.5,-0.5 1049.5,-19.5 1090.5,-19.5 1090.5,-0.5 1049.5,-0.5"/>
<text text-anchor="middle" x="1070" y="-7.5" font-family="Helvetica,sans-Serif" font-size="10.00">string</text>
</g>
<!-- Node3&#45;&gt;Node4 -->
<g id="edge3" class="edge"><title>Node3&#45;&gt;Node4</title>
<path fill="none" stroke="midnightblue" d="M160.09,-347.467C121.886,-338.095 78.6908,-324.961 65,-311 43.9268,-289.511 46,-276.098 46,-246 46,-246 46,-246 46,-132 46,-29.3657 867.766,-13.5133 1038.98,-11.3243"/>
<polygon fill="midnightblue" stroke="midnightblue" points="1039.12,-14.8229 1049.08,-11.2016 1039.04,-7.82343 1039.12,-14.8229"/>
</g>
<!-- Node5 -->
<g id="node5" class="node"><title>Node5</title>
<polygon fill="none" stroke="#bfbfbf" points="246,-291.5 246,-310.5 386,-310.5 386,-291.5 246,-291.5"/>
<text text-anchor="middle" x="316" y="-298.5" font-family="Helvetica,sans-Serif" font-size="10.00">Framework/WorkflowSpec.h</text>
</g>
<!-- Node3&#45;&gt;Node5 -->
<g id="edge4" class="edge"><title>Node3&#45;&gt;Node5</title>
<path fill="none" stroke="midnightblue" d="M247.329,-347.399C261.485,-338.04 280.011,-325.792 294.253,-316.377"/>
<polygon fill="midnightblue" stroke="midnightblue" points="296.493,-319.092 302.904,-310.658 292.632,-313.253 296.493,-319.092"/>
</g>
<!-- Node6 -->
<g id="node6" class="node"><title>Node6</title>
<polygon fill="none" stroke="#bfbfbf" points="74.5,-291.5 74.5,-310.5 227.5,-310.5 227.5,-291.5 74.5,-291.5"/>
<text text-anchor="middle" x="151" y="-298.5" font-family="Helvetica,sans-Serif" font-size="10.00">Framework/CompletionPolicy.h</text>
</g>
<!-- Node3&#45;&gt;Node6 -->
<g id="edge5" class="edge"><title>Node3&#45;&gt;Node6</title>
<path fill="none" stroke="midnightblue" d="M208.226,-347.399C196.654,-338.218 181.577,-326.258 169.804,-316.918"/>
<polygon fill="midnightblue" stroke="midnightblue" points="171.923,-314.131 161.913,-310.658 167.572,-319.615 171.923,-314.131"/>
</g>
<!-- Node11&#45;&gt;Node8 -->
<g id="edge12" class="edge"><title>Node11&#45;&gt;Node8</title>
<path fill="none" stroke="midnightblue" d="M1287.28,-357.818C1112.76,-346.89 640,-311.263 640,-246 640,-246 640,-246 640,-188 640,-153.864 640,-114.052 640,-91.2092"/>
<polygon fill="midnightblue" stroke="midnightblue" points="643.5,-91.1934 640,-81.1934 636.5,-91.1934 643.5,-91.1934"/>
</g>
<!-- Node12 -->
<g id="node12" class="node"><title>Node12</title>
<polygon fill="none" stroke="#bfbfbf" points="1102,-291.5 1102,-310.5 1148,-310.5 1148,-291.5 1102,-291.5"/>
<text text-anchor="middle" x="1125" y="-298.5" font-family="Helvetica,sans-Serif" font-size="10.00">chrono</text>
</g>
<!-- Node11&#45;&gt;Node12 -->
<g id="edge11" class="edge"><title>Node11&#45;&gt;Node12</title>
<path fill="none" stroke="midnightblue" d="M1317.3,-352.941C1280.53,-343.554 1219.68,-327.884 1157.97,-311.224"/>
<polygon fill="midnightblue" stroke="midnightblue" points="1158.62,-307.777 1148.06,-308.543 1156.8,-314.534 1158.62,-307.777"/>
</g>
<!-- Node13 -->
<g id="node13" class="node"><title>Node13</title>
<polygon fill="none" stroke="#bfbfbf" points="1166,-291.5 1166,-310.5 1258,-310.5 1258,-291.5 1166,-291.5"/>
<text text-anchor="middle" x="1212" y="-298.5" font-family="Helvetica,sans-Serif" font-size="10.00">Common/Timer.h</text>
</g>
<!-- Node11&#45;&gt;Node13 -->
<g id="edge13" class="edge"><title>Node11&#45;&gt;Node13</title>
<path fill="none" stroke="midnightblue" d="M1331.08,-352.975C1307.55,-342.901 1268.19,-326.053 1241.21,-314.502"/>
<polygon fill="midnightblue" stroke="midnightblue" points="1242.45,-311.227 1231.88,-310.509 1239.69,-317.662 1242.45,-311.227"/>
</g>
<!-- Node14 -->
<g id="node14" class="node"><title>Node14</title>
<polygon fill="none" stroke="#bfbfbf" points="1251.5,-56.5 1251.5,-86.5 1386.5,-86.5 1386.5,-56.5 1251.5,-56.5"/>
<text text-anchor="start" x="1259.5" y="-74.5" font-family="Helvetica,sans-Serif" font-size="10.00">Configuration/Configuration</text>
<text text-anchor="middle" x="1319" y="-63.5" font-family="Helvetica,sans-Serif" font-size="10.00">Interface.h</text>
</g>
<!-- Node11&#45;&gt;Node14 -->
<g id="edge14" class="edge"><title>Node11&#45;&gt;Node14</title>
<path fill="none" stroke="midnightblue" d="M1379.06,-352.888C1398.56,-345.269 1423.1,-332.031 1435,-311 1446.94,-289.887 1511.95,-256.776 1421,-123 1411.25,-108.657 1396.19,-98.2131 1380.62,-90.6803"/>
<polygon fill="midnightblue" stroke="midnightblue" points="1381.98,-87.456 1371.42,-86.5741 1379.13,-93.8476 1381.98,-87.456"/>
</g>
<!-- Node15 -->
<g id="node15" class="node"><title>Node15</title>
<polygon fill="none" stroke="#bfbfbf" points="1519,-291.5 1519,-310.5 1617,-310.5 1617,-291.5 1519,-291.5"/>
<text text-anchor="middle" x="1568" y="-298.5" font-family="Helvetica,sans-Serif" font-size="10.00">Framework/Task.h</text>
</g>
<!-- Node11&#45;&gt;Node15 -->
<g id="edge15" class="edge"><title>Node11&#45;&gt;Node15</title>
<path fill="none" stroke="midnightblue" d="M1382.09,-352.975C1420.28,-342.504 1485.17,-324.712 1527.3,-313.16"/>
<polygon fill="midnightblue" stroke="midnightblue" points="1528.25,-316.529 1536.97,-310.509 1526.4,-309.778 1528.25,-316.529"/>
</g>
<!-- Node16 -->
<g id="node16" class="node"><title>Node16</title>
<polygon fill="none" stroke="#bfbfbf" points="1635.5,-291.5 1635.5,-310.5 1786.5,-310.5 1786.5,-291.5 1635.5,-291.5"/>
<text text-anchor="middle" x="1711" y="-298.5" font-family="Helvetica,sans-Serif" font-size="10.00">Monitoring/MonitoringFactory.h</text>
</g>
<!-- Node11&#45;&gt;Node16 -->
<g id="edge16" class="edge"><title>Node11&#45;&gt;Node16</title>
<path fill="none" stroke="midnightblue" d="M1402.58,-352.975C1467.81,-342.194 1579.98,-323.654 1649.57,-312.153"/>
<polygon fill="midnightblue" stroke="midnightblue" points="1650.22,-315.593 1659.52,-310.509 1649.08,-308.687 1650.22,-315.593"/>
</g>
<!-- Node17 -->
<g id="node17" class="node"><title>Node17</title>
<g id="a_node17"><a xlink:href="CheckInterface_8h.html" target="_top" xlink:title="QualityControl/CheckInterface.h">
<polygon fill="none" stroke="black" points="1492.5,-179.5 1492.5,-198.5 1649.5,-198.5 1649.5,-179.5 1492.5,-179.5"/>
<text text-anchor="middle" x="1571" y="-186.5" font-family="Helvetica,sans-Serif" font-size="10.00">QualityControl/CheckInterface.h</text>
</a>
</g>
</g>
<!-- Node11&#45;&gt;Node17 -->
<g id="edge17" class="edge"><title>Node11&#45;&gt;Node17</title>
<path fill="none" stroke="midnightblue" d="M1380.07,-352.921C1404.75,-344.724 1440.31,-330.692 1467,-311 1507.32,-281.249 1542.58,-233.129 1559.81,-207.453"/>
<polygon fill="midnightblue" stroke="midnightblue" points="1562.93,-209.075 1565.5,-198.796 1557.08,-205.23 1562.93,-209.075"/>
</g>
<!-- Node18 -->
<g id="node18" class="node"><title>Node18</title>
<g id="a_node18"><a xlink:href="MonitorObject_8h.html" target="_top" xlink:title="QualityControl/MonitorObject.h">
<polygon fill="none" stroke="black" points="1564.5,-123.5 1564.5,-142.5 1715.5,-142.5 1715.5,-123.5 1564.5,-123.5"/>
<text text-anchor="middle" x="1640" y="-130.5" font-family="Helvetica,sans-Serif" font-size="10.00">QualityControl/MonitorObject.h</text>
</a>
</g>
</g>
<!-- Node11&#45;&gt;Node18 -->
<g id="edge32" class="edge"><title>Node11&#45;&gt;Node18</title>
<path fill="none" stroke="midnightblue" d="M1414.5,-358.893C1531.4,-353.438 1771.05,-338.947 1796,-311 1850.53,-249.933 1724.82,-176.327 1667.07,-146.987"/>
<polygon fill="midnightblue" stroke="midnightblue" points="1668.61,-143.845 1658.1,-142.509 1665.49,-150.108 1668.61,-143.845"/>
</g>
<!-- Node25 -->
<g id="node25" class="node"><title>Node25</title>
<g id="a_node25"><a xlink:href="DatabaseInterface_8h.html" target="_top" xlink:title="QualityControl/DatabaseInterface.h">
<polygon fill="none" stroke="black" points="442,-179.5 442,-198.5 612,-198.5 612,-179.5 442,-179.5"/>
<text text-anchor="middle" x="527" y="-186.5" font-family="Helvetica,sans-Serif" font-size="10.00">QualityControl/DatabaseInterface.h</text>
</a>
</g>
</g>
<!-- Node11&#45;&gt;Node25 -->
<g id="edge28" class="edge"><title>Node11&#45;&gt;Node25</title>
<path fill="none" stroke="midnightblue" d="M1287.26,-359.938C1121.17,-355.466 683.927,-340.959 626,-311 581.553,-288.013 549.78,-235.381 535.478,-207.724"/>
<polygon fill="midnightblue" stroke="midnightblue" points="538.604,-206.15 531.008,-198.765 532.341,-209.276 538.604,-206.15"/>
</g>
<!-- Node27 -->
<g id="node27" class="node"><title>Node27</title>
<g id="a_node27"><a xlink:href="QcInfoLogger_8h.html" target="_top" xlink:title="QualityControl/QcInfoLogger.h">
<polygon fill="none" stroke="black" points="1276.5,-291.5 1276.5,-310.5 1425.5,-310.5 1425.5,-291.5 1276.5,-291.5"/>
<text text-anchor="middle" x="1351" y="-298.5" font-family="Helvetica,sans-Serif" font-size="10.00">QualityControl/QcInfoLogger.h</text>
</a>
</g>
</g>
<!-- Node11&#45;&gt;Node27 -->
<g id="edge33" class="edge"><title>Node11&#45;&gt;Node27</title>
<path fill="none" stroke="midnightblue" d="M1351,-352.975C1351,-344.58 1351,-331.481 1351,-320.663"/>
<polygon fill="midnightblue" stroke="midnightblue" points="1354.5,-320.509 1351,-310.509 1347.5,-320.509 1354.5,-320.509"/>
</g>
<!-- Node17&#45;&gt;Node18 -->
<g id="edge18" class="edge"><title>Node17&#45;&gt;Node18</title>
<path fill="none" stroke="midnightblue" d="M1582.09,-179.324C1592.49,-171.185 1608.26,-158.839 1620.72,-149.087"/>
<polygon fill="midnightblue" stroke="midnightblue" points="1622.99,-151.753 1628.71,-142.834 1618.68,-146.241 1622.99,-151.753"/>
</g>
<!-- Node23 -->
<g id="node23" class="node"><title>Node23</title>
<g id="a_node23"><a xlink:href="Quality_8h.html" target="_top" xlink:title="QualityControl/Quality.h">
<polygon fill="none" stroke="black" points="1404.5,-62 1404.5,-81 1525.5,-81 1525.5,-62 1404.5,-62"/>
<text text-anchor="middle" x="1465" y="-69" font-family="Helvetica,sans-Serif" font-size="10.00">QualityControl/Quality.h</text>
</a>
</g>
</g>
<!-- Node17&#45;&gt;Node23 -->
<g id="edge27" class="edge"><title>Node17&#45;&gt;Node23</title>
<path fill="none" stroke="midnightblue" d="M1563.02,-179.137C1551.71,-166.596 1530.36,-142.973 1512,-123 1501.36,-111.426 1489.28,-98.4459 1480.03,-88.5435"/>
<polygon fill="midnightblue" stroke="midnightblue" points="1482.4,-85.9603 1473.02,-81.0478 1477.29,-90.742 1482.4,-85.9603"/>
</g>
<!-- Node19 -->
<g id="node19" class="node"><title>Node19</title>
<polygon fill="none" stroke="#bfbfbf" points="1770,-62 1770,-81 1824,-81 1824,-62 1770,-62"/>
<text text-anchor="middle" x="1797" y="-69" font-family="Helvetica,sans-Serif" font-size="10.00">iostream</text>
</g>
<!-- Node18&#45;&gt;Node19 -->
<g id="edge19" class="edge"><title>Node18&#45;&gt;Node19</title>
<path fill="none" stroke="midnightblue" d="M1662.49,-123.475C1689.31,-113.313 1734.32,-96.2564 1764.81,-84.6996"/>
<polygon fill="midnightblue" stroke="midnightblue" points="1766.44,-87.8258 1774.55,-81.0091 1763.96,-81.2801 1766.44,-87.8258"/>
</g>
<!-- Node20 -->
<g id="node20" class="node"><title>Node20</title>
<polygon fill="none" stroke="#bfbfbf" points="1678.5,-62 1678.5,-81 1713.5,-81 1713.5,-62 1678.5,-62"/>
<text text-anchor="middle" x="1696" y="-69" font-family="Helvetica,sans-Serif" font-size="10.00">map</text>
</g>
<!-- Node18&#45;&gt;Node20 -->
<g id="edge20" class="edge"><title>Node18&#45;&gt;Node20</title>
<path fill="none" stroke="midnightblue" d="M1648.02,-123.475C1656.59,-114.373 1670.36,-99.741 1680.96,-88.483"/>
<polygon fill="midnightblue" stroke="midnightblue" points="1683.69,-90.6899 1687.99,-81.0091 1678.59,-85.8923 1683.69,-90.6899"/>
</g>
<!-- Node21 -->
<g id="node21" class="node"><title>Node21</title>
<polygon fill="none" stroke="#bfbfbf" points="1610.5,-0.5 1610.5,-19.5 1669.5,-19.5 1669.5,-0.5 1610.5,-0.5"/>
<text text-anchor="middle" x="1640" y="-7.5" font-family="Helvetica,sans-Serif" font-size="10.00">TObject.h</text>
</g>
<!-- Node18&#45;&gt;Node21 -->
<g id="edge21" class="edge"><title>Node18&#45;&gt;Node21</title>
<path fill="none" stroke="midnightblue" d="M1672.18,-123.488C1690.54,-116.801 1712.02,-105.45 1723,-87 1730.05,-75.1614 1730.05,-67.8386 1723,-56 1713.4,-39.8702 1695.78,-29.1662 1679.23,-22.2615"/>
<polygon fill="midnightblue" stroke="midnightblue" points="1680.27,-18.9135 1669.68,-18.6228 1677.78,-25.4546 1680.27,-18.9135"/>
</g>
<!-- Node22 -->
<g id="node22" class="node"><title>Node22</title>
<polygon fill="none" stroke="#bfbfbf" points="1544,-62 1544,-81 1660,-81 1660,-62 1544,-62"/>
<text text-anchor="middle" x="1602" y="-69" font-family="Helvetica,sans-Serif" font-size="10.00">Common/Exceptions.h</text>
</g>
<!-- Node18&#45;&gt;Node22 -->
<g id="edge22" class="edge"><title>Node18&#45;&gt;Node22</title>
<path fill="none" stroke="midnightblue" d="M1634.56,-123.475C1628.91,-114.638 1619.94,-100.589 1612.84,-89.475"/>
<polygon fill="midnightblue" stroke="midnightblue" points="1615.77,-87.5531 1607.43,-81.0091 1609.87,-91.3208 1615.77,-87.5531"/>
</g>
<!-- Node18&#45;&gt;Node23 -->
<g id="edge23" class="edge"><title>Node18&#45;&gt;Node23</title>
<path fill="none" stroke="midnightblue" d="M1614.93,-123.475C1584.65,-113.18 1533.56,-95.8103 1499.56,-84.2502"/>
<polygon fill="midnightblue" stroke="midnightblue" points="1500.62,-80.9145 1490.03,-81.0091 1498.37,-87.5419 1500.62,-80.9145"/>
</g>
<!-- Node23&#45;&gt;Node4 -->
<g id="edge26" class="edge"><title>Node23&#45;&gt;Node4</title>
<path fill="none" stroke="midnightblue" d="M1426.77,-61.9687C1416.78,-59.8765 1406.01,-57.7404 1396,-56 1287.9,-37.2041 1158.52,-21.2841 1100.63,-14.5029"/>
<polygon fill="midnightblue" stroke="midnightblue" points="1101.01,-11.0237 1090.67,-13.3444 1100.2,-17.9768 1101.01,-11.0237"/>
</g>
<!-- Node23&#45;&gt;Node21 -->
<g id="edge24" class="edge"><title>Node23&#45;&gt;Node21</title>
<path fill="none" stroke="midnightblue" d="M1490.07,-61.9751C1520.35,-51.6804 1571.44,-34.3103 1605.44,-22.7502"/>
<polygon fill="midnightblue" stroke="midnightblue" points="1606.63,-26.0419 1614.97,-19.5091 1604.38,-19.4145 1606.63,-26.0419"/>
</g>
<!-- Node24 -->
<g id="node24" class="node"><title>Node24</title>
<polygon fill="none" stroke="#bfbfbf" points="1439,-0.5 1439,-19.5 1491,-19.5 1491,-0.5 1439,-0.5"/>
<text text-anchor="middle" x="1465" y="-7.5" font-family="Helvetica,sans-Serif" font-size="10.00">ostream</text>
</g>
<!-- Node23&#45;&gt;Node24 -->
<g id="edge25" class="edge"><title>Node23&#45;&gt;Node24</title>
<path fill="none" stroke="midnightblue" d="M1465,-61.9751C1465,-53.5803 1465,-40.4806 1465,-29.6631"/>
<polygon fill="midnightblue" stroke="midnightblue" points="1468.5,-29.5091 1465,-19.5091 1461.5,-29.5091 1468.5,-29.5091"/>
</g>
<!-- Node25&#45;&gt;Node8 -->
<g id="edge30" class="edge"><title>Node25&#45;&gt;Node8</title>
<path fill="none" stroke="midnightblue" d="M537.256,-179.346C547.577,-170.505 563.811,-156.236 577,-143 594.821,-125.116 613.97,-103.272 626.418,-88.6829"/>
<polygon fill="midnightblue" stroke="midnightblue" points="629.119,-90.9089 632.912,-81.0161 623.778,-86.3845 629.119,-90.9089"/>
</g>
<!-- Node25&#45;&gt;Node18 -->
<g id="edge29" class="edge"><title>Node25&#45;&gt;Node18</title>
<path fill="none" stroke="midnightblue" d="M612.172,-183.404C639.285,-181.964 669.401,-180.389 697,-179 1012.86,-163.102 1388.32,-145.604 1554.08,-137.95"/>
<polygon fill="midnightblue" stroke="midnightblue" points="1554.38,-141.44 1564.21,-137.483 1554.06,-134.448 1554.38,-141.44"/>
</g>
<!-- Node26 -->
<g id="node26" class="node"><title>Node26</title>
<polygon fill="none" stroke="#bfbfbf" points="485.5,-123.5 485.5,-142.5 568.5,-142.5 568.5,-123.5 485.5,-123.5"/>
<text text-anchor="middle" x="527" y="-130.5" font-family="Helvetica,sans-Serif" font-size="10.00">unordered_map</text>
</g>
<!-- Node25&#45;&gt;Node26 -->
<g id="edge31" class="edge"><title>Node25&#45;&gt;Node26</title>
<path fill="none" stroke="midnightblue" d="M527,-179.083C527,-172.006 527,-161.861 527,-152.986"/>
<polygon fill="midnightblue" stroke="midnightblue" points="530.5,-152.751 527,-142.751 523.5,-152.751 530.5,-152.751"/>
</g>
<!-- Node27&#45;&gt;Node19 -->
<g id="edge59" class="edge"><title>Node27&#45;&gt;Node19</title>
<path fill="none" stroke="midnightblue" d="M1393.72,-291.493C1455.22,-278.057 1570.98,-248.264 1659,-199 1711.97,-169.351 1761.11,-115.624 1783.81,-88.7392"/>
<polygon fill="midnightblue" stroke="midnightblue" points="1786.52,-90.9473 1790.22,-81.018 1781.14,-86.4753 1786.52,-90.9473"/>
</g>
<!-- Node28 -->
<g id="node28" class="node"><title>Node28</title>
<g id="a_node28"><a xlink:href="TaskInterface_8h.html" target="_top" xlink:title="TaskInterface.h">
<polygon fill="none" stroke="black" points="1095.5,-235.5 1095.5,-254.5 1180.5,-254.5 1180.5,-235.5 1095.5,-235.5"/>
<text text-anchor="middle" x="1138" y="-242.5" font-family="Helvetica,sans-Serif" font-size="10.00">TaskInterface.h</text>
</a>
</g>
</g>
<!-- Node27&#45;&gt;Node28 -->
<g id="edge34" class="edge"><title>Node27&#45;&gt;Node28</title>
<path fill="none" stroke="midnightblue" d="M1317.25,-291.444C1280.48,-282.122 1221.55,-267.183 1181.38,-256.997"/>
<polygon fill="midnightblue" stroke="midnightblue" points="1182.15,-253.581 1171.59,-254.516 1180.43,-260.367 1182.15,-253.581"/>
</g>
<!-- Node43 -->
<g id="node43" class="node"><title>Node43</title>
<polygon fill="none" stroke="#bfbfbf" points="947,-235.5 947,-254.5 1077,-254.5 1077,-235.5 947,-235.5"/>
<text text-anchor="middle" x="1012" y="-242.5" font-family="Helvetica,sans-Serif" font-size="10.00">InfoLogger/InfoLogger.hxx</text>
</g>
<!-- Node27&#45;&gt;Node43 -->
<g id="edge58" class="edge"><title>Node27&#45;&gt;Node43</title>
<path fill="none" stroke="midnightblue" d="M1297.28,-291.444C1237.03,-281.846 1139.39,-266.292 1075.43,-256.104"/>
<polygon fill="midnightblue" stroke="midnightblue" points="1075.89,-252.633 1065.46,-254.516 1074.79,-259.546 1075.89,-252.633"/>
</g>
<!-- Node28&#45;&gt;Node8 -->
<g id="edge35" class="edge"><title>Node28&#45;&gt;Node8</title>
<path fill="none" stroke="midnightblue" d="M1095.47,-236.358C1092.27,-235.869 1089.09,-235.409 1086,-235 999.939,-223.588 767.663,-249.432 697,-199 678.409,-185.731 656.082,-122.703 645.757,-90.9184"/>
<polygon fill="midnightblue" stroke="midnightblue" points="649.003,-89.5764 642.631,-81.1117 642.333,-91.7023 649.003,-89.5764"/>
</g>
<!-- Node28&#45;&gt;Node14 -->
<g id="edge39" class="edge"><title>Node28&#45;&gt;Node14</title>
<path fill="none" stroke="midnightblue" d="M1180.68,-243.294C1249.09,-241.158 1378.51,-232.654 1407,-199 1416.01,-188.357 1422.33,-154.493 1403,-123 1394.68,-109.438 1381.23,-99.045 1367.5,-91.3161"/>
<polygon fill="midnightblue" stroke="midnightblue" points="1368.98,-88.1401 1358.5,-86.6153 1365.74,-94.3455 1368.98,-88.1401"/>
</g>
<!-- Node29 -->
<g id="node29" class="node"><title>Node29</title>
<polygon fill="none" stroke="#bfbfbf" points="847.5,-179.5 847.5,-198.5 896.5,-198.5 896.5,-179.5 847.5,-179.5"/>
<text text-anchor="middle" x="872" y="-186.5" font-family="Helvetica,sans-Serif" font-size="10.00">cassert</text>
</g>
<!-- Node28&#45;&gt;Node29 -->
<g id="edge36" class="edge"><title>Node28&#45;&gt;Node29</title>
<path fill="none" stroke="midnightblue" d="M1095.27,-236.149C1042.31,-226.351 954.063,-209.802 906.802,-199.265"/>
<polygon fill="midnightblue" stroke="midnightblue" points="907.344,-195.799 896.815,-196.983 905.784,-202.623 907.344,-195.799"/>
</g>
<!-- Node30 -->
<g id="node30" class="node"><title>Node30</title>
<polygon fill="none" stroke="#bfbfbf" points="914.5,-179.5 914.5,-198.5 1039.5,-198.5 1039.5,-179.5 914.5,-179.5"/>
<text text-anchor="middle" x="977" y="-186.5" font-family="Helvetica,sans-Serif" font-size="10.00">Framework/InitContext.h</text>
</g>
<!-- Node28&#45;&gt;Node30 -->
<g id="edge37" class="edge"><title>Node28&#45;&gt;Node30</title>
<path fill="none" stroke="midnightblue" d="M1112.49,-235.444C1085.4,-226.359 1042.41,-211.939 1012.13,-201.783"/>
<polygon fill="midnightblue" stroke="midnightblue" points="1012.99,-198.378 1002.39,-198.516 1010.76,-205.015 1012.99,-198.378"/>
</g>
<!-- Node31 -->
<g id="node31" class="node"><title>Node31</title>
<polygon fill="none" stroke="#bfbfbf" points="1058,-179.5 1058,-198.5 1218,-198.5 1218,-179.5 1058,-179.5"/>
<text text-anchor="middle" x="1138" y="-186.5" font-family="Helvetica,sans-Serif" font-size="10.00">Framework/ProcessingContext.h</text>
</g>
<!-- Node28&#45;&gt;Node31 -->
<g id="edge38" class="edge"><title>Node28&#45;&gt;Node31</title>
<path fill="none" stroke="midnightblue" d="M1138,-235.083C1138,-228.006 1138,-217.861 1138,-208.986"/>
<polygon fill="midnightblue" stroke="midnightblue" points="1141.5,-208.751 1138,-198.751 1134.5,-208.751 1141.5,-208.751"/>
</g>
<!-- Node32 -->
<g id="node32" class="node"><title>Node32</title>
<g id="a_node32"><a xlink:href="Activity_8h.html" target="_top" xlink:title="QualityControl/Activity.h">
<polygon fill="none" stroke="black" points="706.5,-179.5 706.5,-198.5 829.5,-198.5 829.5,-179.5 706.5,-179.5"/>
<text text-anchor="middle" x="768" y="-186.5" font-family="Helvetica,sans-Serif" font-size="10.00">QualityControl/Activity.h</text>
</a>
</g>
</g>
<!-- Node28&#45;&gt;Node32 -->
<g id="edge40" class="edge"><title>Node28&#45;&gt;Node32</title>
<path fill="none" stroke="midnightblue" d="M1095.45,-236.526C1092.25,-235.998 1089.08,-235.484 1086,-235 1001.56,-221.722 904.218,-208.209 839.705,-199.505"/>
<polygon fill="midnightblue" stroke="midnightblue" points="840.018,-196.016 829.64,-198.15 839.084,-202.953 840.018,-196.016"/>
</g>
<!-- Node33 -->
<g id="node33" class="node"><title>Node33</title>
<g id="a_node33"><a xlink:href="ObjectsManager_8h.html" target="_top" xlink:title="QualityControl/ObjectsManager.h">
<polygon fill="none" stroke="black" points="1236.5,-179.5 1236.5,-198.5 1397.5,-198.5 1397.5,-179.5 1236.5,-179.5"/>
<text text-anchor="middle" x="1317" y="-186.5" font-family="Helvetica,sans-Serif" font-size="10.00">QualityControl/ObjectsManager.h</text>
</a>
</g>
</g>
<!-- Node28&#45;&gt;Node33 -->
<g id="edge41" class="edge"><title>Node28&#45;&gt;Node33</title>
<path fill="none" stroke="midnightblue" d="M1166.36,-235.444C1196.74,-226.28 1245.11,-211.688 1278.82,-201.519"/>
<polygon fill="midnightblue" stroke="midnightblue" points="1280.21,-204.756 1288.77,-198.516 1278.18,-198.054 1280.21,-204.756"/>
</g>
<!-- Node33&#45;&gt;Node4 -->
<g id="edge57" class="edge"><title>Node33&#45;&gt;Node4</title>
<path fill="none" stroke="midnightblue" d="M1236.06,-179.804C1233,-179.527 1229.97,-179.258 1227,-179 1172.61,-174.284 774.869,-182.321 737,-143 710.171,-115.142 709.537,-85.1123 735,-56 774.4,-10.9531 963.679,-9.12203 1038.99,-10.2386"/>
<polygon fill="midnightblue" stroke="midnightblue" points="1039.19,-13.7424 1049.25,-10.4199 1039.31,-6.74351 1039.19,-13.7424"/>
</g>
<!-- Node33&#45;&gt;Node18 -->
<g id="edge42" class="edge"><title>Node33&#45;&gt;Node18</title>
<path fill="none" stroke="midnightblue" d="M1368.18,-179.444C1425.47,-169.865 1518.24,-154.356 1579.19,-144.167"/>
<polygon fill="midnightblue" stroke="midnightblue" points="1579.77,-147.618 1589.06,-142.516 1578.62,-140.713 1579.77,-147.618"/>
</g>
<!-- Node33&#45;&gt;Node23 -->
<g id="edge43" class="edge"><title>Node33&#45;&gt;Node23</title>
<path fill="none" stroke="midnightblue" d="M1338.44,-179.431C1356.66,-171.549 1382.99,-158.717 1403,-143 1422.93,-127.347 1441.52,-104.701 1453.05,-89.3314"/>
<polygon fill="midnightblue" stroke="midnightblue" points="1455.9,-91.3677 1458.98,-81.2306 1450.25,-87.2343 1455.9,-91.3677"/>
</g>
<!-- Node34 -->
<g id="node34" class="node"><title>Node34</title>
<g id="a_node34"><a xlink:href="TaskConfig_8h.html" target="_top" xlink:title="QualityControl/TaskConfig.h">
<polygon fill="none" stroke="black" points="1254,-123.5 1254,-142.5 1394,-142.5 1394,-123.5 1254,-123.5"/>
<text text-anchor="middle" x="1324" y="-130.5" font-family="Helvetica,sans-Serif" font-size="10.00">QualityControl/TaskConfig.h</text>
</a>
</g>
</g>
<!-- Node33&#45;&gt;Node34 -->
<g id="edge44" class="edge"><title>Node33&#45;&gt;Node34</title>
<path fill="none" stroke="midnightblue" d="M1318.16,-179.083C1319.08,-171.927 1320.42,-161.635 1321.58,-152.691"/>
<polygon fill="midnightblue" stroke="midnightblue" points="1325.05,-153.118 1322.87,-142.751 1318.11,-152.218 1325.05,-153.118"/>
</g>
<!-- Node35 -->
<g id="node35" class="node"><title>Node35</title>
<g id="a_node35"><a xlink:href="ServiceDiscovery_8h_source.html" target="_top" xlink:title="QualityControl/ServiceDiscovery.h">
<polygon fill="none" stroke="black" points="746.5,-123.5 746.5,-142.5 913.5,-142.5 913.5,-123.5 746.5,-123.5"/>
<text text-anchor="middle" x="830" y="-130.5" font-family="Helvetica,sans-Serif" font-size="10.00">QualityControl/ServiceDiscovery.h</text>
</a>
</g>
</g>
<!-- Node33&#45;&gt;Node35 -->
<g id="edge47" class="edge"><title>Node33&#45;&gt;Node35</title>
<path fill="none" stroke="midnightblue" d="M1240.1,-179.473C1152.26,-169.734 1008.86,-153.832 917.003,-143.647"/>
<polygon fill="midnightblue" stroke="midnightblue" points="917.221,-140.15 906.896,-142.526 916.449,-147.107 917.221,-140.15"/>
</g>
<!-- Node40 -->
<g id="node40" class="node"><title>Node40</title>
<polygon fill="none" stroke="#bfbfbf" points="931.5,-123.5 931.5,-142.5 1000.5,-142.5 1000.5,-123.5 931.5,-123.5"/>
<text text-anchor="middle" x="966" y="-130.5" font-family="Helvetica,sans-Serif" font-size="10.00">TObjArray.h</text>
</g>
<!-- Node33&#45;&gt;Node40 -->
<g id="edge54" class="edge"><title>Node33&#45;&gt;Node40</title>
<path fill="none" stroke="midnightblue" d="M1250.42,-179.471C1190.17,-171.479 1098.77,-158.679 1010.6,-143.204"/>
<polygon fill="midnightblue" stroke="midnightblue" points="1011.16,-139.748 1000.7,-141.453 1009.94,-146.641 1011.16,-139.748"/>
</g>
<!-- Node41 -->
<g id="node41" class="node"><title>Node41</title>
<polygon fill="none" stroke="#bfbfbf" points="1018.5,-123.5 1018.5,-142.5 1089.5,-142.5 1089.5,-123.5 1018.5,-123.5"/>
<text text-anchor="middle" x="1054" y="-130.5" font-family="Helvetica,sans-Serif" font-size="10.00">TObjString.h</text>
</g>
<!-- Node33&#45;&gt;Node41 -->
<g id="edge55" class="edge"><title>Node33&#45;&gt;Node41</title>
<path fill="none" stroke="midnightblue" d="M1275.33,-179.444C1227.46,-169.615 1149.17,-153.54 1099.68,-143.378"/>
<polygon fill="midnightblue" stroke="midnightblue" points="1100.07,-139.887 1089.57,-141.304 1098.67,-146.744 1100.07,-139.887"/>
</g>
<!-- Node42 -->
<g id="node42" class="node"><title>Node42</title>
<polygon fill="none" stroke="#bfbfbf" points="1108,-123.5 1108,-142.5 1236,-142.5 1236,-123.5 1108,-123.5"/>
<text text-anchor="middle" x="1172" y="-130.5" font-family="Helvetica,sans-Serif" font-size="10.00">boost/concept_check.hpp</text>
</g>
<!-- Node33&#45;&gt;Node42 -->
<g id="edge56" class="edge"><title>Node33&#45;&gt;Node42</title>
<path fill="none" stroke="midnightblue" d="M1294.02,-179.444C1269.84,-170.438 1231.58,-156.189 1204.35,-146.049"/>
<polygon fill="midnightblue" stroke="midnightblue" points="1205.46,-142.727 1194.87,-142.516 1203.02,-149.286 1205.46,-142.727"/>
</g>
<!-- Node34&#45;&gt;Node4 -->
<g id="edge45" class="edge"><title>Node34&#45;&gt;Node4</title>
<path fill="none" stroke="midnightblue" d="M1306.14,-123.492C1262.43,-102.671 1149.86,-49.0423 1097.52,-24.108"/>
<polygon fill="midnightblue" stroke="midnightblue" points="1098.71,-20.802 1088.18,-19.661 1095.7,-27.1216 1098.71,-20.802"/>
</g>
<!-- Node34&#45;&gt;Node14 -->
<g id="edge46" class="edge"><title>Node34&#45;&gt;Node14</title>
<path fill="none" stroke="midnightblue" d="M1323.28,-123.475C1322.7,-116.471 1321.83,-106.192 1321.03,-96.6956"/>
<polygon fill="midnightblue" stroke="midnightblue" points="1324.5,-96.1947 1320.18,-86.523 1317.53,-96.781 1324.5,-96.1947"/>
</g>
<!-- Node35&#45;&gt;Node4 -->
<g id="edge51" class="edge"><title>Node35&#45;&gt;Node4</title>
<path fill="none" stroke="midnightblue" d="M887.831,-123.477C949.281,-113.914 1039.22,-98.2678 1051,-87 1066.4,-72.268 1070.06,-47.1007 1070.59,-29.7899"/>
<polygon fill="midnightblue" stroke="midnightblue" points="1074.09,-29.7322 1070.58,-19.7374 1067.09,-29.7424 1074.09,-29.7322"/>
</g>
<!-- Node35&#45;&gt;Node8 -->
<g id="edge50" class="edge"><title>Node35&#45;&gt;Node8</title>
<path fill="none" stroke="midnightblue" d="M802.778,-123.475C769.481,-113.048 713.007,-95.3627 676.108,-83.8074"/>
<polygon fill="midnightblue" stroke="midnightblue" points="676.844,-80.3704 666.255,-80.722 674.752,-87.0506 676.844,-80.3704"/>
</g>
<!-- Node36 -->
<g id="node36" class="node"><title>Node36</title>
<polygon fill="none" stroke="#bfbfbf" points="856,-62 856,-81 902,-81 902,-62 856,-62"/>
<text text-anchor="middle" x="879" y="-69" font-family="Helvetica,sans-Serif" font-size="10.00">atomic</text>
</g>
<!-- Node35&#45;&gt;Node36 -->
<g id="edge48" class="edge"><title>Node35&#45;&gt;Node36</title>
<path fill="none" stroke="midnightblue" d="M837.021,-123.475C844.443,-114.462 856.333,-100.025 865.567,-88.8118"/>
<polygon fill="midnightblue" stroke="midnightblue" points="868.337,-90.9534 871.993,-81.0091 862.934,-86.5034 868.337,-90.9534"/>
</g>
<!-- Node37 -->
<g id="node37" class="node"><title>Node37</title>
<polygon fill="none" stroke="#bfbfbf" points="920.5,-62 920.5,-81 979.5,-81 979.5,-62 920.5,-62"/>
<text text-anchor="middle" x="950" y="-69" font-family="Helvetica,sans-Serif" font-size="10.00">curl/curl.h</text>
</g>
<!-- Node35&#45;&gt;Node37 -->
<g id="edge49" class="edge"><title>Node35&#45;&gt;Node37</title>
<path fill="none" stroke="midnightblue" d="M847.193,-123.475C867.243,-113.534 900.599,-96.9947 923.86,-85.461"/>
<polygon fill="midnightblue" stroke="midnightblue" points="925.434,-88.5871 932.839,-81.0091 922.325,-82.3157 925.434,-88.5871"/>
</g>
<!-- Node38 -->
<g id="node38" class="node"><title>Node38</title>
<polygon fill="none" stroke="#bfbfbf" points="998,-62 998,-81 1042,-81 1042,-62 998,-62"/>
<text text-anchor="middle" x="1020" y="-69" font-family="Helvetica,sans-Serif" font-size="10.00">thread</text>
</g>
<!-- Node35&#45;&gt;Node38 -->
<g id="edge52" class="edge"><title>Node35&#45;&gt;Node38</title>
<path fill="none" stroke="midnightblue" d="M865.621,-123.463C897.962,-115.334 946.762,-102.121 988,-87 989.614,-86.4081 991.261,-85.7708 992.913,-85.1052"/>
<polygon fill="midnightblue" stroke="midnightblue" points="994.44,-88.2587 1002.25,-81.1036 991.684,-81.8242 994.44,-88.2587"/>
</g>
<!-- Node39 -->
<g id="node39" class="node"><title>Node39</title>
<polygon fill="none" stroke="#bfbfbf" points="744,-56.5 744,-86.5 838,-86.5 838,-56.5 744,-56.5"/>
<text text-anchor="start" x="752" y="-74.5" font-family="Helvetica,sans-Serif" font-size="10.00">boost/asio/ip/host</text>
<text text-anchor="middle" x="791" y="-63.5" font-family="Helvetica,sans-Serif" font-size="10.00">_name.hpp</text>
</g>
<!-- Node35&#45;&gt;Node39 -->
<g id="edge53" class="edge"><title>Node35&#45;&gt;Node39</title>
<path fill="none" stroke="midnightblue" d="M824.412,-123.475C819.575,-116.094 812.353,-105.077 805.86,-95.1714"/>
<polygon fill="midnightblue" stroke="midnightblue" points="808.601,-92.9678 800.192,-86.523 802.746,-96.8052 808.601,-92.9678"/>
</g>
</g>
</svg>
