<?xml version="1.0" encoding="UTF-8" standalone="no"?>
<!DOCTYPE svg PUBLIC "-//W3C//DTD SVG 1.1//EN"
 "http://www.w3.org/Graphics/SVG/1.1/DTD/svg11.dtd">
<!-- Generated by graphviz version 2.38.0 (20140413.2041)
 -->
<!-- Title: Framework/src/runReadout.cxx Pages: 1 -->
<svg width="485pt" height="95pt"
 viewBox="0.00 0.00 485.00 95.00" xmlns="http://www.w3.org/2000/svg" xmlns:xlink="http://www.w3.org/1999/xlink">
<g id="graph0" class="graph" transform="scale(1 1) rotate(0) translate(4 91)">
<title>Framework/src/runReadout.cxx</title>
<!-- Node1 -->
<g id="node1" class="node"><title>Node1</title>
<polygon fill="#bfbfbf" stroke="black" points="250.5,-67.5 250.5,-86.5 404.5,-86.5 404.5,-67.5 250.5,-67.5"/>
<text text-anchor="middle" x="327.5" y="-74.5" font-family="Helvetica,sans-Serif" font-size="10.00">Framework/src/runReadout.cxx</text>
</g>
<!-- Node2 -->
<g id="node2" class="node"><title>Node2</title>
<polygon fill="none" stroke="#bfbfbf" points="0,-0.5 0,-30.5 167,-30.5 167,-0.5 0,-0.5"/>
<text text-anchor="start" x="8" y="-18.5" font-family="Helvetica,sans-Serif" font-size="10.00">Framework/DataSamplingReadout</text>
<text text-anchor="middle" x="83.5" y="-7.5" font-family="Helvetica,sans-Serif" font-size="10.00">Adapter.h</text>
</g>
<!-- Node1&#45;&gt;Node2 -->
<g id="edge1" class="edge"><title>Node1&#45;&gt;Node2</title>
<path fill="none" stroke="midnightblue" d="M292.541,-67.4751C255.711,-58.4941 196.799,-44.1282 150.888,-32.9328"/>
<polygon fill="midnightblue" stroke="midnightblue" points="151.551,-29.4918 141.006,-30.523 149.892,-36.2925 151.551,-29.4918"/>
</g>
<!-- Node3 -->
<g id="node3" class="node"><title>Node3</title>
<polygon fill="none" stroke="#bfbfbf" points="185.5,-6 185.5,-25 345.5,-25 345.5,-6 185.5,-6"/>
<text text-anchor="middle" x="265.5" y="-13" font-family="Helvetica,sans-Serif" font-size="10.00">Framework/runDataProcessing.h</text>
</g>
<!-- Node1&#45;&gt;Node3 -->
<g id="edge2" class="edge"><title>Node1&#45;&gt;Node3</title>
<path fill="none" stroke="midnightblue" d="M318.617,-67.4751C309.041,-58.285 293.589,-43.4563 281.814,-32.156"/>
<polygon fill="midnightblue" stroke="midnightblue" points="284.005,-29.408 274.367,-25.0091 279.158,-34.4585 284.005,-29.408"/>
</g>
<!-- Node4 -->
<g id="node4" class="node"><title>Node4</title>
<polygon fill="none" stroke="#bfbfbf" points="363.5,-6 363.5,-25 417.5,-25 417.5,-6 363.5,-6"/>
<text text-anchor="middle" x="390.5" y="-13" font-family="Helvetica,sans-Serif" font-size="10.00">iostream</text>
</g>
<!-- Node1&#45;&gt;Node4 -->
<g id="edge3" class="edge"><title>Node1&#45;&gt;Node4</title>
<path fill="none" stroke="midnightblue" d="M336.526,-67.4751C346.257,-58.285 361.958,-43.4563 373.923,-32.156"/>
<polygon fill="midnightblue" stroke="midnightblue" points="376.623,-34.4199 381.49,-25.0091 371.817,-29.3308 376.623,-34.4199"/>
</g>
<!-- Node5 -->
<g id="node5" class="node"><title>Node5</title>
<polygon fill="none" stroke="#bfbfbf" points="436,-6 436,-25 477,-25 477,-6 436,-6"/>
<text text-anchor="middle" x="456.5" y="-13" font-family="Helvetica,sans-Serif" font-size="10.00">string</text>
</g>
<!-- Node1&#45;&gt;Node5 -->
<g id="edge4" class="edge"><title>Node1&#45;&gt;Node5</title>
<path fill="none" stroke="midnightblue" d="M346.912,-67.3393C366.917,-58.3755 398.978,-43.9037 426.5,-31 427.649,-30.4613 428.821,-29.9084 430.005,-29.3478"/>
<polygon fill="midnightblue" stroke="midnightblue" points="431.573,-32.4772 439.083,-25.0038 428.552,-26.1628 431.573,-32.4772"/>
</g>
</g>
</svg>
